<?xml version="1.0" encoding="UTF-8"?>
<svg width="132px" height="23px" viewBox="0 0 132 23" version="1.1" xmlns="http://www.w3.org/2000/svg" xmlns:xlink="http://www.w3.org/1999/xlink">
    <title>ae-logo copy</title>
    <g id="Page-1" stroke="none" stroke-width="1" fill="none" fill-rule="evenodd">
        <g id="Desktop-HD-Copy-20" transform="translate(-901.000000, -2682.000000)" fill-rule="nonzero">
            <g id="Group-17" transform="translate(871.000000, 2161.000000)">
                <g id="Group-11" transform="translate(0.000000, 19.000000)">
                    <g id="Group-14" transform="translate(30.000000, 359.000000)">
                        <g id="Group-12" transform="translate(0.000000, 101.000000)">
                            <g id="ae-logo-copy" transform="translate(0.000000, 42.000000)">
                                <g id="Group-30" transform="translate(0.000000, 0.880000)" fill="#EE306F">
                                    <path d="M34.3822281,0.000298056644 C30.105432,0.000298056644 27.173427,2.62899552 24.64,5.88464322 L26.1414923,8.04205814 C28.4619804,4.92175038 30.9293418,2.46102422 34.3822281,2.46102422 C38.2810897,2.45368452 41.6127063,5.21172223 42.2560538,8.97927384 L32.4095402,8.97927384 L32.4095402,11.44 L44.8036768,11.44 C45.165546,8.52599948 44.2293948,5.6004172 42.2342954,3.41038165 C40.2391959,1.2203461 37.3783042,-0.0221139636 34.3822281,0.000298056644" id="Path"></path>
                                    <path d="M33.9579712,18.5728098 C29.6257483,18.5728098 26.7669881,14.8629014 23.1384346,9.41954467 C19.509881,3.97618796 16.0841077,0.000228131893 10.7710457,0.000228131893 C4.87060038,-0.0378093971 0.0524351613,4.68560224 -1.77635684e-14,10.5594515 C0.051831324,16.4337305 4.87017399,21.1578069 10.7710457,21.1197719 C15.1512085,21.1197719 18.1548904,18.4109847 20.7519098,15.0510573 L19.2227927,12.8058029 C16.8423294,16.0340761 14.311985,18.5733584 10.7704947,18.5733584 C6.29073995,18.6037937 2.63137248,15.0190088 2.58985598,10.5594515 C2.63197599,6.10010846 6.2915027,2.51589977 10.7710457,2.5466417 C15.1032686,2.5466417 17.8077395,6.06729708 21.5828679,11.6911299 C25.3579962,17.3149627 28.6449092,21.1197719 33.9579712,21.1197719 C38.3760598,21.1325648 42.3552477,18.4617569 44,14.3796204 L41.1489543,14.3796204 C39.6956283,16.9745243 36.9423462,18.5800118 33.9579712,18.5728098" id="Path"></path>
                                </g>
                                <path d="M57.0563139,16.7118314 L56.9508613,16.7118314 C55.8461619,16.7721275 54.758826,16.4270652 53.9084403,15.7463298 C53.1523002,15.0516449 52.7493144,14.0740871 52.8051139,13.0698944 C52.753358,12.0237667 53.2446588,11.0210919 54.116541,10.393459 C54.988769,9.76723138 56.2945869,9.45007217 57.9980958,9.45007217 L60.1037832,9.45007217 L60.1037832,8.67227696 C60.1376357,8.10643756 59.9510569,7.54876536 59.5804464,7.10805637 C59.1926,6.71798754 58.6457732,6.51199409 58.0855991,6.54493696 C57.498101,6.52025613 56.9198133,6.69177092 56.4488394,7.03038473 C56.0473531,7.31428116 55.8115012,7.76587244 55.8144408,8.24508293 L53.1472741,8.03634038 C53.1354089,6.99628147 53.6580369,6.01758995 54.5439608,5.42085567 C55.5831068,4.71392633 56.8361603,4.35721936 58.1080358,4.40626983 C59.7391863,4.40626983 60.977694,4.89711147 61.7904646,5.86261314 C62.7126152,4.90484465 64.0183551,4.3743854 65.3752936,4.40626983 L65.4392383,4.40626983 C66.814449,4.33618997 68.1511277,4.85638261 69.088573,5.82647425 C69.9585573,6.76878232 70.4,8.11347264 70.4,9.82386695 L70.4,11.3260581 L62.7384166,11.3260581 C62.7503742,12.2039827 63.0820423,13.0500897 63.6757111,13.7171581 C64.2819521,14.3125677 65.1253016,14.6283512 65.990621,14.583952 L66.0899036,14.583952 C66.9946197,14.5824272 67.8846153,14.3636488 68.6791026,13.9474761 L69.3522046,13.5758388 L70.1576833,15.396268 C69.5876232,15.8350227 68.9341344,16.1627817 68.2337334,16.3612303 C67.4648003,16.594254 66.6633358,16.712851 65.8571225,16.7129102 L65.8363685,16.7129102 C64.1865063,16.7960257 62.5885759,16.1447897 61.5032744,14.9469591 C60.9966149,15.5294706 60.3441901,15.9784744 59.6073705,16.2517348 C58.7943555,16.5569367 57.9290827,16.7129932 57.0563139,16.7118314 L57.0563139,16.7118314 Z M57.9425649,11.2823678 C57.293419,11.2622481 56.6562181,11.4534445 56.1341642,11.8249905 C55.715566,12.1308598 55.4706743,12.6080338 55.4728415,13.1135847 C55.4541535,13.5504843 55.6427437,13.9719166 55.9855209,14.2592414 C56.407243,14.5715123 56.9330291,14.7249577 57.4641016,14.6907505 L57.4685889,14.6907505 C57.9505744,14.6791911 58.4244454,14.5688568 58.8585445,14.3671187 C59.3196353,14.1776426 59.7413082,13.9095722 60.1032223,13.5758388 L60.1032223,11.2823678 L57.9425649,11.2823678 Z M65.3696845,6.54385818 C64.7102017,6.54617357 64.0836503,6.82128778 63.6499089,7.29899916 C63.1372931,7.91315342 62.8314717,8.66293966 62.7731935,9.44845401 L67.7563919,9.44845401 L67.7563919,9.1194283 C67.8015008,8.43443407 67.587984,7.75679938 67.1550875,7.21107917 C66.7175298,6.75104387 66.0875451,6.50531474 65.4403602,6.54224002 L65.3696845,6.54385818 Z" id="Shape" fill="#010101"></path>
                                <path d="M75.195736,1.76 L75.195736,4.6425514 L77.3714268,4.6425514 L77.3714268,6.61560814 L75.195736,6.61560814 L75.195736,13.2349843 C75.1639949,13.5856843 75.2635846,13.9356666 75.4749661,14.2162667 C75.7527294,14.4489211 76.1125905,14.5577727 76.4717463,14.5177749 C76.7975358,14.5166648 77.122224,14.4796297 77.44,14.4073323 L77.44,16.4676387 C76.8459529,16.630846 76.2333592,16.7156764 75.6175984,16.72 C73.4912803,16.72 72.4281212,15.5910927 72.4281212,13.3332782 L72.4281212,6.61505592 L70.4,6.61505592 L70.4,4.6425514 L72.429767,4.6425514 L72.429767,1.76 L75.195736,1.76 Z" id="Path" fill="#010101"></path>
                                <path d="M83.2806364,16.7167002 L83.1900984,16.7167002 C81.6299465,16.7694337 80.1203323,16.188091 79.0412949,15.1190225 C77.9422285,13.954995 77.3696556,12.4284635 77.4469153,10.8682612 L77.4469153,10.5391212 C77.4284992,9.44494478 77.6655272,8.36043562 78.1410398,7.36319062 C78.5598506,6.47790654 79.2343886,5.72293661 80.0867524,5.1854713 C80.8987096,4.67816733 81.849683,4.40730438 82.8222522,4.40632692 L82.8791944,4.40632692 C84.3267276,4.33268922 85.7272389,4.90509719 86.6641377,5.95328463 C87.5507266,6.9784746 88,8.45258986 88,10.3308458 L88,11.4056766 L80.1641937,11.4056766 C80.1950939,12.2675086 80.546192,13.0913143 81.1555561,13.7317786 C81.70198,14.2778265 82.4608802,14.5875535 83.2550124,14.5886216 L83.3444116,14.5886216 C84.5469913,14.6013654 85.6773791,14.0460741 86.3594973,13.1074919 L87.8115216,14.4790882 C87.3377071,15.1824085 86.6734525,15.7524041 85.8880164,16.129644 C85.0785576,16.5139273 84.1859999,16.7148882 83.2806364,16.7167002 Z M82.7869481,6.54465737 C82.1251447,6.54780376 81.499121,6.8297758 81.0786842,7.31408942 C80.5792512,7.93424315 80.2771834,8.67669233 80.2080391,9.45403859 L85.3408033,9.45403859 L85.3408033,9.25601505 C85.3412867,8.52480253 85.0886466,7.81362371 84.6216235,7.23153465 C84.175848,6.76566691 83.5328593,6.51410912 82.8700836,6.54627609 L82.7869481,6.54465737 Z" id="Shape" fill="#010101"></path>
                                <path d="M96.7891996,7.10756047 C96.4347217,7.04726697 96.0757508,7.01728053 95.7161813,7.01792644 C94.5086982,7.01792644 93.6952491,7.49489466 93.2758341,8.4488311 L93.2758341,16.72 L90.64,16.72 L90.64,4.62588582 L93.1559499,4.62588582 L93.2212922,5.97849569 C93.73762,4.99808311 94.7593018,4.38909799 95.8673867,4.40126078 C96.1855296,4.39094732 96.5025479,4.44399243 96.8,4.55731039 L96.7891996,7.10756047 Z" id="Path" fill="#010101"></path>
                                <path d="M100.156713,4.62453875 L100.232519,6.02091655 C101.019028,4.97806039 102.293393,4.37209344 103.639273,4.40098871 C106.077895,4.40098871 107.318137,5.84308447 107.36,8.72727601 L107.36,16.71892 L104.731674,16.71892 L104.731674,8.88278908 C104.781346,8.2786195 104.611322,7.67657243 104.250248,7.17808501 C103.840964,6.77540563 103.262091,6.5721547 102.676987,6.62568961 C101.642097,6.60895243 100.702033,7.19878846 100.30776,8.1122434 L100.30776,16.72 L97.68,16.72 L97.68,4.62453875 L100.156713,4.62453875 Z" id="Path" fill="#010101"></path>
                                <path d="M112.423305,16.72 L109.313183,16.72 L109.313183,4.60517239 L112.423305,4.60517239 L112.423305,16.72 L112.423305,16.72 Z M110.874417,2.89178963 C110.399231,2.91863064 109.932065,2.77156622 109.578019,2.48368184 C109.275715,2.21393555 109.110161,1.84317344 109.120575,1.45922522 C109.108971,1.07041803 109.273295,0.694162803 109.57555,0.417461701 C109.928159,0.125326314 110.397174,-0.0242570948 110.874417,0.00321275708 C111.353575,-0.023425206 111.824343,0.125936421 112.180076,0.417461701 C112.485401,0.692624479 112.651587,1.06956406 112.639371,1.45922522 C112.650399,1.84382328 112.483479,2.21513982 112.178841,2.48368184 C111.821511,2.77143547 111.35198,2.91833512 110.874417,2.89178963 Z" id="Shape" fill="#010101"></path>
                                <path d="M118.315736,1.76 L118.315736,4.6425514 L120.491427,4.6425514 L120.491427,6.61560814 L118.315736,6.61560814 L118.315736,13.2349843 C118.283941,13.5856894 118.383536,13.9356909 118.594966,14.2162667 C118.872699,14.4489785 119.232585,14.5578376 119.591746,14.5177749 C119.917535,14.5166515 120.242222,14.4796166 120.56,14.4073323 L120.56,16.4676387 C119.965776,16.6308934 119.352994,16.7157242 118.73705,16.72 C116.610366,16.72 115.547207,15.5910927 115.547573,13.3332782 L115.547573,6.61505592 L113.52,6.61505592 L113.52,4.6425514 L115.549767,4.6425514 L115.549767,1.76 L118.315736,1.76 Z" id="Path" fill="#010101"></path>
                                <path d="M125.902952,13.3591371 L128.300403,5.28 L131.12,5.28 L126.438834,18.9948223 C125.720092,20.9979019 124.501088,21.9996277 122.781821,22 C122.350751,21.9929522 121.922443,21.9259276 121.507977,21.8006599 L121.507977,19.721269 L122.008945,19.7542132 C122.534915,19.7916103 123.059582,19.6635572 123.51661,19.3862437 C123.89933,19.0721748 124.17893,18.6391586 124.315936,18.1483249 L124.69682,17.1253807 L120.56,5.28 L123.412396,5.28 L125.902952,13.3591371 Z" id="Path" fill="#010101"></path>
                            </g>
                        </g>
                    </g>
                </g>
            </g>
        </g>
    </g>
</svg>