<svg width="64" height="64" viewBox="0 0 64 64" fill="none" xmlns="http://www.w3.org/2000/svg">
<rect opacity="0.1" width="64" height="64" rx="5" fill="#1161FE"/>
<path fill-rule="evenodd" clip-rule="evenodd" d="M24.6299 46.8078C24.1466 46.4984 24.0257 45.8967 24.1466 45.3626L27.6507 36.2808L22.3341 36.7254C21.8507 36.7665 21.3674 36.4983 21.1257 36.0488C20.8841 35.6005 21.0049 35.064 21.3674 34.6978L36.4716 18.3853C36.8341 17.9733 37.5591 17.8802 38.0424 18.1618C38.5257 18.4421 38.6466 19.0233 38.5257 19.561L35.7466 28.7359L41.4257 28.2743C41.9091 28.2345 42.3924 28.5124 42.6341 28.9703C42.8757 29.4295 42.7549 29.972 42.3924 30.3309L26.2007 46.6434C25.8382 47.0482 25.1132 47.1159 24.6299 46.8078ZM38.4049 30.9472L34.1757 31.2879C33.8132 31.3205 33.3299 31.1526 33.0882 30.8408C32.8466 30.5291 32.8466 30.1134 32.9674 29.7304L34.6591 23.8736L25.2341 34.0574L29.3424 33.713C29.8257 33.678 30.1882 33.858 30.4299 34.1903C30.6716 34.5214 30.7924 34.9576 30.5507 35.3455L28.4966 40.9159L38.4049 30.9472Z" fill="#1161FE"/>
<path d="M24.6299 46.8078L24.3604 47.2289L24.3611 47.2294L24.6299 46.8078ZM24.1466 45.3626L23.6801 45.1826L23.6669 45.2167L23.6589 45.2523L24.1466 45.3626ZM27.6507 36.2808L28.1172 36.4607L28.4046 35.716L27.6091 35.7825L27.6507 36.2808ZM22.3341 36.7254L22.2924 36.2272L22.2917 36.2272L22.3341 36.7254ZM21.1257 36.0488L21.5661 35.812L21.5659 35.8115L21.1257 36.0488ZM21.3674 34.6978L21.7227 35.0496L21.7286 35.0437L21.7343 35.0375L21.3674 34.6978ZM36.4716 18.3853L36.8386 18.7251L36.847 18.7156L36.4716 18.3853ZM38.0424 18.1618L37.7907 18.5938L37.7915 18.5943L38.0424 18.1618ZM38.5257 19.561L39.0043 19.706L39.0096 19.6885L39.0136 19.6707L38.5257 19.561ZM35.7466 28.7359L35.268 28.591L35.0552 29.2938L35.7871 29.2343L35.7466 28.7359ZM41.4257 28.2743L41.4662 28.7727L41.4669 28.7726L41.4257 28.2743ZM42.6341 28.9703L43.0765 28.7375L43.0763 28.737L42.6341 28.9703ZM42.3924 30.3309L42.0406 29.9756L42.0375 29.9787L42.3924 30.3309ZM26.2007 46.6434L25.8459 46.2912L25.8368 46.3003L25.8283 46.3099L26.2007 46.6434ZM38.4049 30.9472L38.7595 31.2996L39.7132 30.3401L38.3648 30.4488L38.4049 30.9472ZM34.1757 31.2879L34.1356 30.7895L34.1309 30.7899L34.1757 31.2879ZM32.9674 29.7304L33.4444 29.8808L33.4478 29.8691L32.9674 29.7304ZM34.6591 23.8736L35.1394 24.0123L34.2921 23.534L34.6591 23.8736ZM25.2341 34.0574L24.8671 33.7178L23.9921 34.6633L25.2758 34.5557L25.2341 34.0574ZM29.3424 33.713L29.3062 33.2143L29.3006 33.2148L29.3424 33.713ZM30.4299 34.1903L30.0255 34.4844L30.026 34.4851L30.4299 34.1903ZM30.5507 35.3455L30.1264 35.0811L30.0993 35.1245L30.0816 35.1725L30.5507 35.3455ZM28.4966 40.9159L28.0274 40.7429L28.8512 41.2684L28.4966 40.9159ZM24.8994 46.3866C24.6585 46.2325 24.5402 45.8888 24.6342 45.4729L23.6589 45.2523C23.5113 45.9046 23.6346 46.7644 24.3604 47.2289L24.8994 46.3866ZM24.613 45.5426L28.1172 36.4607L27.1843 36.1008L23.6801 45.1826L24.613 45.5426ZM27.6091 35.7825L22.2924 36.2272L22.3757 37.2237L27.6924 36.779L27.6091 35.7825ZM22.2917 36.2272C22.0173 36.2505 21.7184 36.0952 21.5661 35.812L20.6853 36.2855C21.0164 36.9014 21.6842 37.2825 22.3764 37.2236L22.2917 36.2272ZM21.5659 35.8115C21.4464 35.5899 21.4868 35.2879 21.7227 35.0496L21.0121 34.3461C20.523 34.8401 20.3217 35.6111 20.6856 36.286L21.5659 35.8115ZM21.7343 35.0375L36.8385 18.725L36.1047 18.0456L21.0005 34.3581L21.7343 35.0375ZM36.847 18.7156C36.933 18.6178 37.0855 18.5356 37.28 18.5088C37.4738 18.482 37.66 18.5177 37.7907 18.5938L38.2941 17.7297C37.9415 17.5244 37.5235 17.4657 37.1434 17.5182C36.7639 17.5705 36.3727 17.7408 36.0962 18.0551L36.847 18.7156ZM37.7915 18.5943C38.0097 18.7209 38.1335 19.026 38.0379 19.4514L39.0136 19.6707C39.1596 19.0206 39.0417 18.1634 38.2933 17.7293L37.7915 18.5943ZM38.0472 19.4161L35.268 28.591L36.2251 28.8809L39.0043 19.706L38.0472 19.4161ZM35.7871 29.2343L41.4662 28.7727L41.3852 27.776L35.7061 28.2376L35.7871 29.2343ZM41.4669 28.7726C41.7342 28.7506 42.0358 28.9079 42.1919 29.2037L43.0763 28.737C42.7491 28.1169 42.084 27.7183 41.3846 27.776L41.4669 28.7726ZM42.1916 29.2032C42.3175 29.4425 42.2681 29.7504 42.0406 29.9756L42.7442 30.6862C43.2417 30.1937 43.434 29.4166 43.0765 28.7375L42.1916 29.2032ZM42.0375 29.9787L25.8459 46.2912L26.5556 46.9957L42.7473 30.6832L42.0375 29.9787ZM25.8283 46.3099C25.7473 46.4002 25.6014 46.4762 25.4104 46.4955C25.2207 46.5146 25.0339 46.4724 24.8987 46.3862L24.3611 47.2294C24.7092 47.4513 25.1266 47.5292 25.5109 47.4904C25.8938 47.4517 26.2916 47.2914 26.5732 46.977L25.8283 46.3099ZM38.3648 30.4488L34.1356 30.7895L34.2159 31.7863L38.4451 31.4456L38.3648 30.4488ZM34.1309 30.7899C34.0381 30.7983 33.9045 30.781 33.769 30.7279C33.6329 30.6747 33.5352 30.6013 33.4834 30.5345L32.6931 31.1472C32.883 31.3921 33.1477 31.5586 33.4044 31.6591C33.6616 31.7598 33.9509 31.8102 34.2206 31.7859L34.1309 30.7899ZM33.4834 30.5345C33.3831 30.4051 33.3486 30.1841 33.4442 29.8808L32.4906 29.58C32.3446 30.0427 32.31 30.6531 32.6931 31.1472L33.4834 30.5345ZM33.4478 29.8691L35.1394 24.0123L34.1787 23.7348L32.487 29.5916L33.4478 29.8691ZM34.2921 23.534L24.8671 33.7178L25.601 34.397L35.026 24.2132L34.2921 23.534ZM25.2758 34.5557L29.3842 34.2113L29.3006 33.2148L25.1923 33.5592L25.2758 34.5557ZM29.3786 34.2117C29.6966 34.1887 29.8896 34.2975 30.0255 34.4844L30.8343 33.8963C30.4869 33.4186 29.9549 33.1673 29.3062 33.2144L29.3786 34.2117ZM30.026 34.4851C30.206 34.7316 30.2158 34.9375 30.1264 35.0811L30.9751 35.6099C31.369 34.9778 31.1372 34.3112 30.8338 33.8956L30.026 34.4851ZM30.0816 35.1725L28.0274 40.7429L28.9657 41.0889L31.0199 35.5185L30.0816 35.1725ZM28.8512 41.2684L38.7595 31.2996L38.0503 30.5947L28.1419 40.5635L28.8512 41.2684Z" fill="#0F1726"/>
</svg>
