<svg width="64" height="64" viewBox="0 0 64 64" fill="none" xmlns="http://www.w3.org/2000/svg">
<rect opacity="0.1" width="64" height="64" rx="5" fill="#00FF9D"/>
<path fill-rule="evenodd" clip-rule="evenodd" d="M30.1379 34.8891C26.8276 31.6567 26.8276 26.4156 30.1379 23.1832C33.3103 19.9508 38.5517 19.9508 41.8621 23.1832C45.0345 26.4156 45.0345 31.6567 41.8621 34.8891C38.5517 38.1215 33.3103 38.1215 30.1379 34.8891ZM27.2414 35.8052C26.2759 34.6174 25.7241 33.2847 25.3103 31.894L20.3448 36.8399C19.7931 37.3793 18.9655 37.3793 18.4138 36.8399C17.8621 36.3018 17.8621 35.4286 18.4138 34.8891L24.8966 28.3457C25.1724 25.7548 26.1379 23.2108 28.2069 21.2324C32.4828 16.9225 39.5172 16.9225 43.7931 21.2324C48.069 25.5423 48.069 32.53 43.7931 36.8399C41.8621 38.8196 39.2414 39.8902 36.6207 40.0516L30.1379 46.5965C29.5862 47.1345 28.7586 47.1345 28.2069 46.5965C27.6552 46.057 27.6552 45.1837 28.2069 44.6443L33.1724 39.6984C31.6552 39.3273 30.4138 38.6789 29.1724 37.756L22.2759 44.6443C21.7241 45.1837 20.8966 45.1837 20.3448 44.6443C19.7931 44.1063 19.7931 43.233 20.3448 42.6936L27.2414 35.8052ZM32.069 32.9384C32.6207 33.4778 33.4483 33.4778 34 32.9384L37.3103 29.6508V30.175C37.1724 30.9352 37.8621 31.5877 38.5517 31.6333C39.3793 31.6774 39.931 31.0966 40.069 30.3364L40.2069 26.1907C40.3448 25.7975 40.2069 25.4126 39.931 25.1339C39.6552 24.8553 39.2414 24.709 38.8276 24.7325L34.6897 24.9767C33.8621 25.0208 33.3103 25.6734 33.3103 26.4349C33.4483 27.1951 34.1379 27.7759 34.8276 27.7304L35.3793 27.7L32.069 30.9876C31.5172 31.5257 31.5172 32.4003 32.069 32.9384Z" fill="#00FF9D"/>
<path d="M30.1379 34.8891L30.4949 34.5388L30.4872 34.5314L30.1379 34.8891ZM30.1379 23.1832L30.4873 23.541L30.4948 23.5334L30.1379 23.1832ZM41.8621 23.1832L42.219 22.8329L42.2114 22.8254L41.8621 23.1832ZM41.8621 34.8891L42.2115 35.247L42.2189 35.2394L41.8621 34.8891ZM27.2414 35.8052L27.5947 36.159L27.914 35.84L27.6294 35.4898L27.2414 35.8052ZM25.3103 31.894L25.7896 31.7514L25.5508 30.9488L24.9575 31.5398L25.3103 31.894ZM20.3448 36.8399L20.6944 37.1974L20.6977 37.1941L20.3448 36.8399ZM18.4138 36.8399L18.7633 36.4824L18.7629 36.4819L18.4138 36.8399ZM18.4138 34.8891L18.7634 35.2467L18.769 35.241L18.4138 34.8891ZM24.8966 28.3457L25.2517 28.6976L25.3752 28.573L25.3937 28.3986L24.8966 28.3457ZM28.2069 21.2324L28.5526 21.5939L28.5618 21.5846L28.2069 21.2324ZM43.7931 36.8399L43.4381 36.4877L43.4352 36.4908L43.7931 36.8399ZM36.6207 40.0516L36.59 39.5526L36.3996 39.5643L36.2655 39.6998L36.6207 40.0516ZM30.1379 46.5965L30.4871 46.9545L30.4932 46.9483L30.1379 46.5965ZM28.2069 46.5965L27.8574 46.954L27.8578 46.9544L28.2069 46.5965ZM28.2069 44.6443L28.5565 45.0019L28.5597 44.9986L28.2069 44.6443ZM33.1724 39.6984L33.5253 40.0527L34.1561 39.4243L33.2912 39.2128L33.1724 39.6984ZM29.1724 37.756L29.4707 37.3547L29.1244 37.0972L28.8191 37.4022L29.1724 37.756ZM22.2759 44.6443L22.6254 45.0019L22.6292 44.9981L22.2759 44.6443ZM20.3448 44.6443L20.6944 44.2868L20.6939 44.2864L20.3448 44.6443ZM20.3448 42.6936L20.6944 43.0511L20.6982 43.0473L20.3448 42.6936ZM32.069 32.9384L32.4185 32.5809L32.4181 32.5804L32.069 32.9384ZM34 32.9384L34.3496 33.2959L34.3523 33.2931L34 32.9384ZM37.3103 29.6508H37.8103V28.4495L36.958 29.296L37.3103 29.6508ZM37.3103 30.175L37.8023 30.2643L37.8103 30.22V30.175H37.3103ZM38.5517 31.6333L38.5188 32.1322L38.5251 32.1326L38.5517 31.6333ZM40.069 30.3364L40.5609 30.4257L40.5675 30.3897L40.5687 30.3531L40.069 30.3364ZM40.2069 26.1907L39.7351 26.0252L39.7097 26.0975L39.7072 26.1741L40.2069 26.1907ZM38.8276 24.7325L38.7993 24.2333L38.7981 24.2333L38.8276 24.7325ZM34.6897 24.9767L34.7163 25.476L34.7191 25.4758L34.6897 24.9767ZM33.3103 26.4349H32.8103V26.4799L32.8184 26.5242L33.3103 26.4349ZM34.8276 27.7304L34.8001 27.2311L34.7947 27.2314L34.8276 27.7304ZM35.3793 27.7L35.7316 28.0548L36.6643 27.1286L35.3518 27.2008L35.3793 27.7ZM32.069 30.9876L32.4181 31.3456L32.4213 31.3424L32.069 30.9876ZM30.4872 34.5314C27.3778 31.4952 27.3778 26.5772 30.4872 23.5409L29.7886 22.8254C26.2774 26.254 26.2774 31.8183 29.7886 35.2469L30.4872 34.5314ZM30.4948 23.5334C33.4671 20.5048 38.3924 20.494 41.5128 23.5409L42.2114 22.8254C38.711 19.4075 33.1536 19.3967 29.7811 22.833L30.4948 23.5334ZM41.5052 23.5334C44.4868 26.5713 44.4868 31.501 41.5052 34.5389L42.2189 35.2394C45.5822 31.8125 45.5822 26.2598 42.2189 22.833L41.5052 23.5334ZM41.5128 34.5314C38.3924 37.5783 33.4671 37.5675 30.4948 34.5389L29.7811 35.2394C33.1536 38.6756 38.711 38.6648 42.2114 35.2469L41.5128 34.5314ZM27.6294 35.4898C26.722 34.3735 26.194 33.1106 25.7896 31.7514L24.8311 32.0366C25.2543 33.4587 25.8297 34.8612 26.8534 36.1206L27.6294 35.4898ZM24.9575 31.5398L19.992 36.4856L20.6977 37.1941L25.6632 32.2483L24.9575 31.5398ZM19.9953 36.4824C19.6379 36.8318 19.1208 36.8318 18.7633 36.4824L18.0642 37.1974C18.8103 37.9268 19.9483 37.9268 20.6944 37.1974L19.9953 36.4824ZM18.7629 36.4819C18.4126 36.1404 18.412 35.5902 18.7633 35.2466L18.0642 34.5316C17.3122 35.2669 17.3115 36.4633 18.0647 37.1979L18.7629 36.4819ZM18.769 35.241L25.2517 28.6976L24.5414 27.9938L18.0586 34.5372L18.769 35.241ZM25.3937 28.3986C25.6603 25.8953 26.5883 23.4719 28.5524 21.5938L27.8613 20.871C25.6875 22.9497 24.6846 25.6142 24.3994 28.2927L25.3937 28.3986ZM28.5618 21.5846C32.6421 17.4718 39.3579 17.4718 43.4382 21.5846L44.1481 20.8803C39.6766 16.3732 32.3234 16.3732 27.8519 20.8803L28.5618 21.5846ZM43.4382 21.5846C47.5206 25.6995 47.5206 32.3728 43.4382 36.4877L44.1481 37.192C48.6173 32.6872 48.6173 25.3851 44.1481 20.8803L43.4382 21.5846ZM43.4352 36.4908C41.5993 38.3729 39.0995 39.398 36.59 39.5526L36.6514 40.5507C39.3833 40.3824 42.1248 39.2663 44.151 37.189L43.4352 36.4908ZM36.2655 39.6998L29.7827 46.2446L30.4932 46.9483L36.9759 40.4035L36.2655 39.6998ZM29.7888 46.2385C29.4313 46.5872 28.9135 46.5872 28.556 46.2385L27.8578 46.9544C28.6037 47.6819 29.7411 47.6819 30.487 46.9544L29.7888 46.2385ZM28.5564 46.239C28.2053 45.8957 28.2053 45.3451 28.5564 45.0018L27.8574 44.2868C27.105 45.0224 27.105 46.2184 27.8574 46.954L28.5564 46.239ZM28.5597 44.9986L33.5253 40.0527L32.8196 39.3442L27.854 44.2901L28.5597 44.9986ZM33.2912 39.2128C31.8511 38.8605 30.6697 38.2461 29.4707 37.3547L28.8741 38.1572C30.1579 39.1117 31.4592 39.7941 33.0536 40.1841L33.2912 39.2128ZM28.8191 37.4022L21.9225 44.2906L22.6292 44.9981L29.5258 38.1097L28.8191 37.4022ZM21.9263 44.2868C21.5689 44.6363 21.0518 44.6363 20.6944 44.2868L19.9953 45.0018C20.7413 45.7312 21.8794 45.7312 22.6254 45.0018L21.9263 44.2868ZM20.6939 44.2864C20.3437 43.9448 20.343 43.3946 20.6944 43.0511L19.9953 42.336C19.2432 43.0714 19.2425 44.2678 19.9957 45.0023L20.6939 44.2864ZM20.6982 43.0473L27.5947 36.159L26.888 35.4514L19.9915 42.3398L20.6982 43.0473ZM31.7194 33.2959C32.4655 34.0253 33.6035 34.0253 34.3495 33.2959L33.6505 32.5809C33.293 32.9303 32.7759 32.9303 32.4185 32.5809L31.7194 33.2959ZM34.3523 33.2931L37.6627 30.0055L36.958 29.296L33.6477 32.5836L34.3523 33.2931ZM36.8103 29.6508V30.175H37.8103V29.6508H36.8103ZM36.8184 30.0858C36.7165 30.6475 36.9258 31.1533 37.2518 31.5096C37.5731 31.8608 38.0353 32.1003 38.5188 32.1322L38.5847 31.1343C38.3785 31.1207 38.1511 31.0111 37.9896 30.8346C37.8328 30.6633 37.7663 30.4627 37.8023 30.2643L36.8184 30.0858ZM38.5251 32.1326C39.6621 32.1932 40.3892 31.372 40.5609 30.4257L39.577 30.2472C39.4728 30.8212 39.0966 31.1616 38.5784 31.134L38.5251 32.1326ZM40.5687 30.3531L40.7066 26.2073L39.7072 26.1741L39.5692 30.3198L40.5687 30.3531ZM40.6787 26.3562C40.8944 25.7415 40.6632 25.1629 40.2864 24.7822L39.5757 25.4857C39.7506 25.6623 39.7953 25.8536 39.7351 26.0252L40.6787 26.3562ZM40.2864 24.7822C39.8994 24.3912 39.3409 24.2026 38.7993 24.2333L38.8559 25.2317C39.1419 25.2155 39.411 25.3193 39.5757 25.4857L40.2864 24.7822ZM38.7981 24.2333L34.6602 24.4775L34.7191 25.4758L38.857 25.2316L38.7981 24.2333ZM34.663 24.4774C33.5538 24.5365 32.8103 25.4241 32.8103 26.4349H33.8103C33.8103 25.9227 34.1703 25.5051 34.7163 25.476L34.663 24.4774ZM32.8184 26.5242C32.9949 27.4968 33.8807 28.294 34.8605 28.2293L34.7947 27.2314C34.3951 27.2578 33.9017 26.8934 33.8023 26.3456L32.8184 26.5242ZM34.8551 28.2296L35.4068 28.1993L35.3518 27.2008L34.8001 27.2311L34.8551 28.2296ZM35.027 27.3452L31.7166 30.6328L32.4213 31.3424L35.7316 28.0548L35.027 27.3452ZM31.7199 30.6296C30.9669 31.3639 30.9669 32.5621 31.7199 33.2963L32.4181 32.5804C32.0675 32.2386 32.0675 31.6874 32.4181 31.3456L31.7199 30.6296Z" fill="#0D271D"/>
</svg>
