<svg width="64" height="64" viewBox="0 0 64 64" fill="none" xmlns="http://www.w3.org/2000/svg">
<rect opacity="0.1" width="64" height="64" rx="5" fill="#00DAFF"/>
<path fill-rule="evenodd" clip-rule="evenodd" d="M39.3864 24.6886C41.3068 26.6404 41.6023 29.6037 40.2727 31.868L32.1477 23.7556C34.3636 22.4183 37.3182 22.7175 39.2386 24.653V24.6708L39.3864 24.6886ZM42.3409 23.7097C44.8523 27.1809 44.5568 32.0294 41.4545 35.1423L41.0114 35.5836C40.5682 35.9183 40.125 35.9183 39.6818 35.5836L37.1705 33.0483L35.1023 35.1408C34.5114 35.7199 33.625 35.7199 33.0341 35.1408C32.4432 34.5633 32.4432 33.6244 33.0341 33.0468L35.1023 30.9528L33.0341 28.8588L30.9659 30.9528C30.375 31.5304 29.4886 31.5304 28.8977 30.9528C28.3068 30.3738 28.3068 29.4364 28.8977 28.8588L30.9659 26.7648L28.4545 24.228C28.1591 23.8948 28.1591 23.3528 28.4545 23.0181L28.8977 22.5768C32 19.4624 36.875 19.1425 40.2727 21.6157L42.4886 19.4343C43.0795 18.8552 43.9659 18.8552 44.5568 19.4343C45.1477 20.0118 45.1477 20.9493 44.5568 21.5283L42.3409 23.7097ZM19.4432 44.5668C18.8523 43.9878 18.8523 43.0504 19.4432 42.4728L21.6591 40.29C19.1477 36.8202 19.4432 31.9717 22.5455 28.8588L22.9886 28.416C23.4318 28.0813 23.875 28.0813 24.3182 28.416L35.5455 39.7716C35.8409 40.1063 35.8409 40.6483 35.5455 40.9815L35.1023 41.4243C32 44.5372 27.125 44.8571 23.7273 42.384L21.5114 44.5668C20.9205 45.1444 20.0341 45.1444 19.4432 44.5668ZM31.8523 40.2455L23.7273 32.1316C22.3977 34.4033 22.6932 37.3785 24.7614 39.3303C26.6818 41.2822 29.6364 41.5872 31.8523 40.2455Z" fill="#00DAFF"/>
<path d="M39.3864 24.6886L39.7428 24.3379L39.6199 24.213L39.4461 24.1921L39.3864 24.6886ZM40.2727 31.868L39.9194 32.2218L40.3767 32.6784L40.7039 32.1212L40.2727 31.868ZM32.1477 23.7556L31.8894 23.3275L31.3421 23.6578L31.7944 24.1094L32.1477 23.7556ZM39.2386 24.653H39.7386V24.4471L39.5936 24.3008L39.2386 24.653ZM39.2386 24.6708H38.7386V25.1142L39.1789 25.1672L39.2386 24.6708ZM42.3409 23.7097L41.9901 23.3534L41.684 23.6547L41.9358 24.0027L42.3409 23.7097ZM41.4545 35.1423L41.8074 35.4966L41.8087 35.4953L41.4545 35.1423ZM41.0114 35.5836L41.3127 35.9826L41.34 35.962L41.3642 35.9379L41.0114 35.5836ZM39.6818 35.5836L39.3266 35.9355L39.3519 35.961L39.3805 35.9826L39.6818 35.5836ZM37.1705 33.0483L37.5257 32.6964L37.1701 32.3374L36.8148 32.6968L37.1705 33.0483ZM35.1023 35.1408L35.4523 35.498L35.4579 35.4923L35.1023 35.1408ZM33.0341 35.1408L33.384 34.7837L33.3836 34.7833L33.0341 35.1408ZM33.0341 33.0468L33.3836 33.4044L33.3898 33.3982L33.0341 33.0468ZM35.1023 30.9528L35.458 31.3042L35.805 30.9528L35.458 30.6015L35.1023 30.9528ZM33.0341 28.8588L33.3898 28.5074L33.0341 28.1473L32.6784 28.5074L33.0341 28.8588ZM30.9659 30.9528L31.3155 31.3104L31.3216 31.3042L30.9659 30.9528ZM28.8977 30.9528L28.5478 31.3099L28.5482 31.3104L28.8977 30.9528ZM28.8977 28.8588L29.2473 29.2164L29.2535 29.2102L28.8977 28.8588ZM30.9659 26.7648L31.3216 27.1161L31.6691 26.7644L31.3212 26.413L30.9659 26.7648ZM28.4545 24.228L28.0804 24.5597L28.0896 24.57L28.0992 24.5798L28.4545 24.228ZM28.4545 23.0181L28.1017 22.6638L28.0903 22.6751L28.0797 22.6872L28.4545 23.0181ZM28.8977 22.5768L29.2505 22.9311L29.252 22.9296L28.8977 22.5768ZM40.2727 21.6157L39.9785 22.0199L40.3213 22.2695L40.6235 21.972L40.2727 21.6157ZM42.4886 19.4343L42.1387 19.0772L42.1379 19.078L42.4886 19.4343ZM44.5568 19.4343L44.2069 19.7914L44.2073 19.7918L44.5568 19.4343ZM44.5568 21.5283L44.2069 21.1712L44.2061 21.172L44.5568 21.5283ZM19.4432 44.5668L19.0932 44.924L19.0937 44.9244L19.4432 44.5668ZM19.4432 42.4728L19.7927 42.8304L19.7941 42.829L19.4432 42.4728ZM21.6591 40.29L22.01 40.6462L22.316 40.3447L22.0641 39.9968L21.6591 40.29ZM22.5455 28.8588L22.1921 28.5051L22.1913 28.5059L22.5455 28.8588ZM22.9886 28.416L22.6873 28.017L22.6597 28.0379L22.6352 28.0623L22.9886 28.416ZM24.3182 28.416L24.6737 28.0645L24.6483 28.0388L24.6195 28.017L24.3182 28.416ZM35.5455 39.7716L35.9203 39.4407L35.9109 39.4301L35.901 39.4201L35.5455 39.7716ZM35.5455 40.9815L35.8989 41.3353L35.9095 41.3246L35.9196 41.3133L35.5455 40.9815ZM35.1023 41.4243L34.7489 41.0706L34.7481 41.0714L35.1023 41.4243ZM23.7273 42.384L24.0215 41.9797L23.6786 41.7301L23.3764 42.0278L23.7273 42.384ZM21.5114 44.5668L21.8609 44.9244L21.8623 44.923L21.5114 44.5668ZM31.8523 40.2455L32.1112 40.6732L32.6572 40.3427L32.2056 39.8917L31.8523 40.2455ZM23.7273 32.1316L24.0806 31.7778L23.6226 31.3205L23.2957 31.8791L23.7273 32.1316ZM24.7614 39.3303L25.1178 38.9797L25.1113 38.9731L25.1045 38.9667L24.7614 39.3303ZM39.03 25.0392C40.7876 26.8256 41.0597 29.5403 39.8416 31.6148L40.7039 32.1212C42.1449 29.6671 41.8261 26.4552 39.7428 24.3379L39.03 25.0392ZM40.626 31.5142L32.501 23.4018L31.7944 24.1094L39.9194 32.2218L40.626 31.5142ZM32.4061 24.1837C34.4279 22.9635 37.1284 23.2361 38.8837 25.0052L39.5936 24.3008C37.5079 22.1988 34.2994 21.8731 31.8894 23.3275L32.4061 24.1837ZM38.7386 24.653V24.6708H39.7386V24.653H38.7386ZM39.1789 25.1672L39.3266 25.185L39.4461 24.1921L39.2984 24.1744L39.1789 25.1672ZM41.9358 24.0027C44.3066 27.2797 44.0257 31.854 41.1004 34.7894L41.8087 35.4953C45.0879 32.2048 45.3979 27.0821 42.746 23.4166L41.9358 24.0027ZM41.1017 34.788L40.6586 35.2293L41.3642 35.9379L41.8074 35.4966L41.1017 34.788ZM40.71 35.1846C40.5529 35.3033 40.4345 35.3346 40.3466 35.3346C40.2587 35.3346 40.1402 35.3033 39.9831 35.1846L39.3805 35.9826C39.6666 36.1987 39.9913 36.3346 40.3466 36.3346C40.7019 36.3346 41.0266 36.1987 41.3127 35.9826L40.71 35.1846ZM40.037 35.2318L37.5257 32.6964L36.8152 33.4002L39.3266 35.9355L40.037 35.2318ZM36.8148 32.6968L34.7467 34.7894L35.4579 35.4923L37.5261 33.3998L36.8148 32.6968ZM34.7523 34.7837C34.3558 35.1722 33.7805 35.1722 33.384 34.7837L32.6841 35.498C33.4695 36.2675 34.6669 36.2675 35.4522 35.498L34.7523 34.7837ZM33.3836 34.7833C32.9934 34.4018 32.9934 33.7858 33.3836 33.4044L32.6846 32.6892C31.893 33.4629 31.893 34.7247 32.6846 35.4984L33.3836 34.7833ZM33.3898 33.3982L35.458 31.3042L34.7465 30.6015L32.6784 32.6955L33.3898 33.3982ZM35.458 30.6015L33.3898 28.5074L32.6784 29.2102L34.7465 31.3042L35.458 30.6015ZM32.6784 28.5074L30.6102 30.6015L31.3216 31.3042L33.3898 29.2102L32.6784 28.5074ZM30.6164 30.5952C30.2198 30.9829 29.6438 30.9829 29.2472 30.5952L28.5482 31.3104C29.3334 32.0778 30.5302 32.0778 31.3154 31.3104L30.6164 30.5952ZM29.2477 30.5957C28.8566 30.2125 28.8572 29.5975 29.2472 29.2164L28.5482 28.5012C27.7564 29.2752 27.7571 30.5351 28.5478 31.3099L29.2477 30.5957ZM29.2535 29.2102L31.3216 27.1161L30.6102 26.4134L28.542 28.5074L29.2535 29.2102ZM31.3212 26.413L28.8099 23.8762L28.0992 24.5798L30.6106 27.1166L31.3212 26.413ZM28.8287 23.8963C28.7014 23.7528 28.7004 23.4951 28.8294 23.349L28.0797 22.6872C27.6177 23.2105 27.6168 24.0368 28.0804 24.5597L28.8287 23.8963ZM28.8074 23.3724L29.2505 22.9311L28.5449 22.2225L28.1017 22.6638L28.8074 23.3724ZM29.252 22.9296C32.18 19.9902 36.7797 19.6916 39.9785 22.0199L40.567 21.2114C36.9703 18.5934 31.82 18.9347 28.5435 22.2239L29.252 22.9296ZM40.6235 21.972L42.8394 19.7906L42.1379 19.078L39.922 21.2593L40.6235 21.972ZM42.8386 19.7914C43.2351 19.4029 43.8104 19.4029 44.2069 19.7914L44.9068 19.0772C44.1214 18.3076 42.924 18.3076 42.1387 19.0772L42.8386 19.7914ZM44.2073 19.7918C44.5973 20.173 44.598 20.7879 44.2069 21.1712L44.9068 21.8854C45.6975 21.1106 45.6982 19.8507 44.9063 19.0767L44.2073 19.7918ZM44.2061 21.172L41.9901 23.3534L42.6917 24.066L44.9076 21.8846L44.2061 21.172ZM19.7931 44.2097C19.402 43.8265 19.4027 43.2116 19.7927 42.8304L19.0937 42.1153C18.3018 42.8892 18.3025 44.1491 19.0932 44.924L19.7931 44.2097ZM19.7941 42.829L22.01 40.6462L21.3082 39.9338L19.0923 42.1166L19.7941 42.829ZM22.0641 39.9968C19.6934 36.7214 19.9743 32.1471 22.8996 29.2118L22.1913 28.5059C18.9121 31.7962 18.602 36.919 21.2541 40.5831L22.0641 39.9968ZM22.8989 29.2125L23.342 28.7697L22.6352 28.0623L22.1921 28.5051L22.8989 29.2125ZM23.29 28.815C23.4471 28.6964 23.5655 28.665 23.6534 28.665C23.7413 28.665 23.8598 28.6964 24.0169 28.815L24.6195 28.017C24.3334 27.801 24.0087 27.665 23.6534 27.665C23.2981 27.665 22.9734 27.801 22.6873 28.017L23.29 28.815ZM23.9626 28.7675L35.1899 40.1232L35.901 39.4201L24.6737 28.0645L23.9626 28.7675ZM35.1706 40.1025C35.2996 40.2486 35.2986 40.5063 35.1713 40.6498L35.9196 41.3133C36.3832 40.7903 36.3823 39.964 35.9203 39.4407L35.1706 40.1025ZM35.1921 40.6278L34.7489 41.0706L35.4557 41.778L35.8989 41.3353L35.1921 40.6278ZM34.7481 41.0714C31.82 44.0095 27.2203 44.308 24.0215 41.9797L23.433 42.7882C27.0297 45.4062 32.18 45.065 35.4564 41.7773L34.7481 41.0714ZM23.3764 42.0278L21.1605 44.2106L21.8623 44.923L24.0782 42.7402L23.3764 42.0278ZM21.1619 44.2093C20.7653 44.5969 20.1893 44.5969 19.7927 44.2093L19.0937 44.9244C19.8789 45.6919 21.0756 45.6919 21.8609 44.9244L21.1619 44.2093ZM32.2056 39.8917L24.0806 31.7778L23.374 32.4854L31.499 40.5993L32.2056 39.8917ZM23.2957 31.8791C21.854 34.3425 22.173 37.5751 24.4182 39.694L25.1045 38.9667C23.2133 37.1819 22.9414 34.4642 24.1588 32.3842L23.2957 31.8791ZM24.405 39.681C26.4901 41.8002 29.6998 42.1333 32.1112 40.6732L31.5933 39.8178C29.5729 41.0411 26.8736 40.7641 25.1178 38.9797L24.405 39.681Z" fill="#0D2327"/>
</svg>
