<svg width="531" height="531" viewBox="0 0 531 531" fill="none" xmlns="http://www.w3.org/2000/svg">
<mask id="mask0" mask-type="alpha" maskUnits="userSpaceOnUse" x="0" y="0" width="531" height="531">
<circle cx="265.5" cy="265.5" r="265.5" fill="white"/>
</mask>
<g mask="url(#mask0)">
<ellipse opacity="0.578275" cx="153.004" cy="30.5855" rx="2.03814" ry="2.04382" transform="rotate(-1.8 153.004 30.5855)" fill="black"/>
<ellipse opacity="0.853485" cx="73.5169" cy="138.908" rx="4.07631" ry="4.0876" transform="rotate(-3.6 73.5169 138.908)" fill="black"/>
<ellipse opacity="0.12256" cx="16.4491" cy="196.135" rx="4.07637" ry="4.08754" transform="rotate(-5.4 16.4491 196.135)" fill="black"/>
<ellipse opacity="0.763794" cx="136.699" cy="365.772" rx="2.03822" ry="2.04373" transform="rotate(-7.2 136.699 365.772)" fill="black"/>
<ellipse opacity="0.564408" cx="468.915" cy="290.151" rx="4.07655" ry="4.08737" transform="rotate(-9 468.915 290.151)" fill="black"/>
<ellipse opacity="0.417833" cx="144.852" cy="202.267" rx="10.1917" ry="10.2181" transform="rotate(-10.8 144.852 202.267)" fill="black"/>
<ellipse opacity="0.735701" cx="-5.97038" cy="357.597" rx="18.3464" ry="18.3912" transform="rotate(-14.4 -5.97038 357.597)" fill="black"/>
<ellipse opacity="0.110155" cx="138.737" cy="249.275" rx="4.07715" ry="4.08676" transform="rotate(-16.2 138.737 249.275)" fill="black"/>
<ellipse opacity="0.468878" cx="350.703" cy="232.924" rx="16.3094" ry="16.3462" transform="rotate(-18 350.703 232.924)" fill="black"/>
<ellipse opacity="0.228443" cx="507.64" cy="263.581" rx="6.11636" ry="6.12951" transform="rotate(-19.8 507.64 263.581)" fill="black"/>
<ellipse opacity="0.1" cx="16.4491" cy="183.872" rx="8.15562" ry="8.17221" transform="rotate(-21.6 16.4491 183.872)" fill="black"/>
<ellipse opacity="0.1" cx="26.7232" cy="236.118" rx="8.15562" ry="8.17221" transform="rotate(-21.6 26.7232 236.118)" fill="#1161FE"/>
<ellipse opacity="0.0832901" cx="191.729" cy="220.661" rx="8.15613" ry="8.1717" transform="rotate(-23.4 191.729 220.661)" fill="black"/>
<ellipse opacity="0.521641" cx="30.716" cy="414.824" rx="2.03917" ry="2.04279" transform="rotate(-25.2 30.716 414.824)" fill="black"/>
<ellipse opacity="0.776785" cx="367.008" cy="106.207" rx="8.15723" ry="8.1706" transform="rotate(-27 367.008 106.207)" fill="black"/>
<ellipse opacity="0.0798254" cx="10.3347" cy="34.6732" rx="10.1973" ry="10.2125" transform="rotate(-28.8 10.3347 34.6732)" fill="black"/>
<ellipse opacity="0.0999543" cx="100.013" cy="492.489" rx="6.1193" ry="6.12657" transform="rotate(-32.4 100.013 492.489)" fill="black"/>
<ellipse opacity="0.680285" cx="42.9449" cy="120.514" rx="2.0401" ry="2.04186" transform="rotate(-36 42.9449 120.514)" fill="black"/>
<ellipse opacity="0.373016" cx="364.97" cy="10.1473" rx="10.2014" ry="10.2084" transform="rotate(-37.8 364.97 10.1473)" fill="black"/>
<ellipse opacity="0.917217" cx="328.284" cy="439.35" rx="10.2022" ry="10.2076" transform="rotate(-39.6 328.284 439.35)" fill="black"/>
<ellipse opacity="0.266122" cx="222.301" cy="304.458" rx="18.3672" ry="18.3704" transform="rotate(-43.2 222.301 304.458)" fill="black"/>
<circle opacity="0.245805" cx="440.381" cy="36.717" r="4.08196" transform="rotate(-45 440.381 36.717)" fill="black"/>
<ellipse opacity="0.684334" cx="338.474" cy="261.537" rx="4.08228" ry="4.0816" transform="rotate(-46.8 338.474 261.537)" fill="black"/>
<ellipse opacity="0.190406" cx="49.0592" cy="36.717" rx="16.3307" ry="16.325" transform="rotate(-48.6 49.0592 36.717)" fill="black"/>
<ellipse opacity="0.760162" cx="338.474" cy="98.0317" rx="4.08302" ry="4.08089" transform="rotate(-50.4 338.474 98.0317)" fill="black"/>
<ellipse opacity="0.137837" cx="42.9449" cy="190.004" rx="6.12506" ry="6.12081" transform="rotate(-52.2 42.9449 190.004)" fill="black"/>
<ellipse opacity="0.0701162" cx="354.779" cy="232.924" rx="16.3362" ry="16.3194" transform="rotate(-55.8 354.779 232.924)" fill="black"/>
<ellipse opacity="0.994006" cx="305.864" cy="98.0317" rx="8.16876" ry="8.15907" transform="rotate(-57.6 305.864 98.0317)" fill="black"/>
<ellipse opacity="0.634505" cx="360.894" cy="87.8126" rx="10.2117" ry="10.198" transform="rotate(-59.4 360.894 87.8126)" fill="black"/>
<ellipse opacity="0.111633" cx="362.932" cy="449.569" rx="4.0853" ry="4.07861" transform="rotate(-63 362.932 449.569)" fill="black"/>
<ellipse opacity="0.631162" cx="446.495" cy="390.298" rx="10.214" ry="10.1958" transform="rotate(-64.8 446.495 390.298)" fill="black"/>
<ellipse opacity="0.373091" cx="462.801" cy="443.438" rx="6.12915" ry="6.11672" transform="rotate(-68.4 462.801 443.438)" fill="black"/>
<ellipse opacity="0.912944" cx="320.131" cy="1.97198" rx="10.2158" ry="10.1939" transform="rotate(-70.2 320.131 1.97198)" fill="black"/>
<ellipse opacity="0.0216699" cx="311.979" cy="120.514" rx="6.12984" ry="6.11603" transform="rotate(-72 311.979 120.514)" fill="black"/>
<ellipse opacity="0.103034" cx="132.623" cy="394.386" rx="10.2169" ry="10.1929" transform="rotate(-73.8 132.623 394.386)" fill="black"/>
<ellipse opacity="0.198637" cx="234.53" cy="181.828" rx="18.392" ry="18.3456" transform="rotate(-77.4 234.53 181.828)" fill="black"/>
<ellipse opacity="0.7276" cx="218.224" cy="218.617" rx="2.04362" ry="2.03833" transform="rotate(-79.2 218.224 218.617)" fill="black"/>
<ellipse opacity="0.461174" cx="0.144028" cy="306.502" rx="8.17473" ry="8.1531" transform="rotate(-81 0.144028 306.502)" fill="black"/>
<ellipse opacity="0.827059" cx="153.004" cy="226.792" rx="10.2187" ry="10.1911" transform="rotate(-82.8 153.004 226.792)" fill="#00FF9D"/>
<ellipse opacity="0.104771" cx="130.585" cy="261.537" rx="16.3502" ry="16.3055" transform="rotate(-84.6 130.585 261.537)" fill="black"/>
<ellipse opacity="0.211556" cx="371.085" cy="167.522" rx="8.1752" ry="8.15263" transform="rotate(-86.4 371.085 167.522)" fill="black"/>
<ellipse opacity="0.859686" cx="165.233" cy="418.912" rx="18.3944" ry="18.3433" transform="rotate(-88.2 165.233 418.912)" fill="black"/>
<ellipse opacity="0.803333" cx="489.296" cy="175.697" rx="4.08765" ry="4.07627" transform="rotate(-90 489.296 175.697)" fill="black"/>
<ellipse opacity="0.499332" cx="311.979" cy="288.107" rx="10.2191" ry="10.1907" transform="rotate(-91.8 311.979 288.107)" fill="black"/>
<ellipse opacity="0.191" cx="122.432" cy="147.083" rx="12.2628" ry="12.2289" transform="rotate(-93.6 122.432 147.083)" fill="black"/>
<ellipse opacity="0.24445" cx="279.368" cy="26.4978" rx="14.3061" ry="14.2676" transform="rotate(-97.2 279.368 26.4978)" fill="black"/>
<ellipse opacity="0.831208" cx="377.199" cy="480.227" rx="10.2184" ry="10.1914" transform="rotate(-99 377.199 480.227)" fill="black"/>
<ellipse opacity="0.153955" cx="450.572" cy="161.39" rx="10.2181" ry="10.1917" transform="rotate(-100.8 450.572 161.39)" fill="#1161FE"/>
<ellipse opacity="0.641133" cx="261.025" cy="343.29" rx="12.2613" ry="12.2304" transform="rotate(-102.6 261.025 343.29)" fill="#1161FE"/>
<ellipse opacity="0.275128" cx="515.792" cy="247.231" rx="2.04347" ry="2.03849" transform="rotate(-104.4 515.792 247.231)" fill="black"/>
<ellipse opacity="0.0448836" cx="307.902" cy="198.179" rx="6.13014" ry="6.11573" transform="rotate(-106.2 307.902 198.179)" fill="black"/>
<ellipse opacity="0.900923" cx="248.796" cy="375.992" rx="4.08656" ry="4.07736" transform="rotate(-108 248.796 375.992)" fill="black"/>
<ellipse opacity="0.490525" cx="450.572" cy="259.494" rx="14.3022" ry="14.2715" transform="rotate(-109.8 450.572 259.494)" fill="black"/>
<ellipse opacity="0.746222" cx="234.53" cy="512.928" rx="10.2153" ry="10.1945" transform="rotate(-111.6 234.53 512.928)" fill="black"/>
<ellipse opacity="0.0546137" cx="116.318" cy="263.581" rx="14.3005" ry="14.2733" transform="rotate(-113.4 116.318 263.581)" fill="black"/>
<ellipse opacity="0.705562" cx="189.691" cy="198.179" rx="10.214" ry="10.1958" transform="rotate(-115.2 189.691 198.179)" fill="black"/>
<ellipse opacity="0.909862" cx="53.1355" cy="351.466" rx="4.0853" ry="4.07861" transform="rotate(-117 53.1355 351.466)" fill="black"/>
<ellipse opacity="0.798424" cx="489.296" cy="441.394" rx="8.17001" ry="8.15782" transform="rotate(-118.8 489.296 441.394)" fill="black"/>
<ellipse opacity="0.744727" cx="179.5" cy="331.027" rx="8.16939" ry="8.15843" transform="rotate(-120.6 179.5 331.027)" fill="black"/>
<ellipse opacity="0.336249" cx="358.856" cy="179.785" rx="4.08438" ry="4.07953" transform="rotate(-122.4 358.856 179.785)" fill="black"/>
<ellipse opacity="0.807294" cx="481.144" cy="8.10348" rx="8.16743" ry="8.1604" transform="rotate(-126 481.144 8.10348)" fill="black"/>
<ellipse opacity="0.452085" cx="320.131" cy="51.0238" rx="6.12506" ry="6.12081" transform="rotate(-127.8 320.131 51.0238)" fill="black"/>
<ellipse opacity="0.1" cx="112.241" cy="328.984" rx="18.3736" ry="18.364" transform="rotate(-129.6 112.241 328.984)" fill="#00FF9D"/>
<ellipse opacity="0.196673" cx="24.6016" cy="61.2429" rx="12.248" ry="12.2437" transform="rotate(-131.4 24.6016 61.2429)" fill="black"/>
<circle opacity="0.302832" cx="279.369" cy="190.004" r="10.2049" transform="rotate(-135 279.369 190.004)" fill="black"/>
<ellipse opacity="0.18522" cx="242.682" cy="173.653" rx="10.204" ry="10.2058" transform="rotate(-136.8 242.682 173.653)" fill="black"/>
<ellipse opacity="0.104335" cx="358.856" cy="212.486" rx="8.16249" ry="8.16534" transform="rotate(-138.6 358.856 212.486)" fill="black"/>
<ellipse opacity="0.920932" cx="81.6694" cy="314.677" rx="4.08089" ry="4.08302" transform="rotate(-140.4 81.6694 314.677)" fill="black"/>
<ellipse opacity="0.535478" cx="352.741" cy="312.633" rx="18.3609" ry="18.3767" transform="rotate(-144 352.741 312.633)" fill="black"/>
<ellipse opacity="0.410146" cx="389.428" cy="132.777" rx="2.03993" ry="2.04202" transform="rotate(-145.8 389.428 132.777)" fill="black"/>
<ellipse opacity="0.710592" cx="275.292" cy="373.948" rx="2.03977" ry="2.04219" transform="rotate(-147.6 275.292 373.948)" fill="black"/>
<ellipse opacity="0.970852" cx="114.28" cy="298.326" rx="8.15782" ry="8.17001" transform="rotate(-151.2 114.28 298.326)" fill="black"/>
<ellipse opacity="0.961763" cx="146.89" cy="200.223" rx="16.3145" ry="16.3412" transform="rotate(-153 146.89 200.223)" fill="black"/>
<ellipse opacity="0.235029" cx="236.568" cy="523.147" rx="8.15613" ry="8.1717" transform="rotate(-156.6 236.568 523.147)" fill="black"/>
<ellipse opacity="0.809479" cx="102.051" cy="-16.4224" rx="16.3112" ry="16.3444" transform="rotate(-158.4 102.051 -16.4224)" fill="black"/>
<ellipse opacity="0.924433" cx="442.419" cy="26.4979" rx="6.11636" ry="6.12951" transform="rotate(-160.2 442.419 26.4979)" fill="black"/>
<ellipse opacity="0.95862" cx="261.025" cy="-4.1595" rx="8.15471" ry="8.17312" transform="rotate(-162 261.025 -4.1595)" fill="black"/>
<ellipse opacity="0.547984" cx="354.78" cy="265.625" rx="16.3086" ry="16.347" transform="rotate(-163.8 354.78 265.625)" fill="black"/>
<ellipse opacity="0.662731" cx="358.856" cy="232.924" rx="16.3072" ry="16.3484" transform="rotate(-167.4 358.856 232.924)" fill="black"/>
<ellipse opacity="0.0909775" cx="513.754" cy="470.007" rx="16.3067" ry="16.349" transform="rotate(-169.2 513.754 470.007)" fill="black"/>
<ellipse opacity="0.974933" cx="248.796" cy="245.187" rx="16.3062" ry="16.3495" transform="rotate(-171 248.796 245.187)" fill="black"/>
<ellipse opacity="0.583797" cx="-1.89408" cy="451.613" rx="6.11467" ry="6.1312" transform="rotate(-172.8 -1.89408 451.613)" fill="black"/>
<ellipse opacity="0.935871" cx="26.6398" cy="296.282" rx="2.03819" ry="2.04377" transform="rotate(-174.6 26.6398 296.282)" fill="black"/>
<ellipse opacity="0.644982" cx="297.712" cy="138.908" rx="16.3051" ry="16.3505" transform="rotate(-178.2 297.712 138.908)" fill="black"/>
<ellipse opacity="0.142436" cx="383.313" cy="298.326" rx="8.15254" ry="8.17529" transform="rotate(-180 383.313 298.326)" fill="black"/>
<ellipse opacity="0.945812" cx="210.072" cy="1.97202" rx="10.1907" ry="10.2191" transform="rotate(178.2 210.072 1.97202)" fill="black"/>
<ellipse opacity="0.546207" cx="163.195" cy="85.7687" rx="16.3053" ry="16.3504" transform="rotate(176.4 163.195 85.7687)" fill="black"/>
<ellipse opacity="0.626242" cx="507.64" cy="443.438" rx="2.03819" ry="2.04377" transform="rotate(174.6 507.64 443.438)" fill="black"/>
<ellipse opacity="0.106551" cx="318.093" cy="69.4182" rx="8.1529" ry="8.17493" transform="rotate(172.8 318.093 69.4182)" fill="black"/>
<ellipse opacity="0.919489" cx="491.335" cy="271.757" rx="10.1914" ry="10.2184" transform="rotate(171 491.335 271.757)" fill="black"/>
<ellipse opacity="0.154802" cx="173.385" cy="394.386" rx="14.2683" ry="14.3054" transform="rotate(169.2 173.385 394.386)" fill="black"/>
<ellipse opacity="0.474268" cx="181.538" cy="345.334" rx="6.11522" ry="6.13066" transform="rotate(167.4 181.538 345.334)" fill="black"/>
<ellipse opacity="0.540324" cx="214.148" cy="333.071" rx="10.1924" ry="10.2174" transform="rotate(165.6 214.148 333.071)" fill="black"/>
<ellipse opacity="0.254068" cx="244.72" cy="-0.0718274" rx="4.07736" ry="4.08656" transform="rotate(162 244.72 -0.0718274)" fill="black"/>
<ellipse opacity="0.868013" cx="-10.0467" cy="79.6373" rx="10.1945" ry="10.2153" transform="rotate(158.4 -10.0467 79.6373)" fill="black"/>
<ellipse opacity="0.305524" cx="51.0974" cy="46.9361" rx="14.2732" ry="14.3005" transform="rotate(156.6 51.0974 46.9361)" fill="black"/>
<ellipse opacity="0.153865" cx="507.64" cy="451.613" rx="14.2742" ry="14.2995" transform="rotate(154.8 507.64 451.613)" fill="black"/>
<ellipse opacity="0.685272" cx="118.356" cy="294.239" rx="12.2376" ry="12.2541" transform="rotate(149.4 118.356 294.239)" fill="black"/>
<ellipse opacity="0.946317" cx="371.085" cy="102.119" rx="8.15907" ry="8.16876" transform="rotate(147.6 371.085 102.119)" fill="black"/>
<ellipse opacity="0.677502" cx="18.4872" cy="108.251" rx="10.1997" ry="10.2102" transform="rotate(145.8 18.4872 108.251)" fill="black"/>
<ellipse opacity="0.90785" cx="358.856" cy="359.641" rx="12.2406" ry="12.2511" transform="rotate(144 358.856 359.641)" fill="black"/>
<ellipse opacity="0.463565" cx="491.335" cy="390.298" rx="6.12081" ry="6.12506" transform="rotate(142.2 491.335 390.298)" fill="black"/>
<ellipse opacity="0.0407058" cx="214.148" cy="128.689" rx="10.2022" ry="10.2076" transform="rotate(140.4 214.148 128.689)" fill="black"/>
<ellipse opacity="0.464544" cx="267.14" cy="431.175" rx="2.04062" ry="2.04133" transform="rotate(138.6 267.14 431.175)" fill="black"/>
<ellipse opacity="0.383703" cx="536.174" cy="365.772" rx="14.2856" ry="14.2881" transform="rotate(136.8 536.174 365.772)" fill="black"/>
<ellipse opacity="0.283006" cx="344.589" cy="194.091" rx="10.2058" ry="10.204" transform="rotate(133.2 344.589 194.091)" fill="black"/>
<ellipse opacity="0.343663" cx="124.47" cy="394.386" rx="6.124" ry="6.12186" transform="rotate(131.4 124.47 394.386)" fill="black"/>
<ellipse opacity="0.787139" cx="236.568" cy="192.048" rx="12.2491" ry="12.2427" transform="rotate(129.6 236.568 192.048)" fill="black"/>
<ellipse opacity="0.506761" cx="47.0211" cy="91.9002" rx="2.04202" ry="2.03993" transform="rotate(124.2 47.0211 91.9002)" fill="black"/>
<ellipse opacity="0.399742" cx="328.284" cy="75.5496" rx="10.2109" ry="10.1988" transform="rotate(122.4 328.284 75.5496)" fill="#00FF9D"/>
<ellipse opacity="0.092962" cx="497.449" cy="290.151" rx="12.2541" ry="12.2376" transform="rotate(120.6 497.449 290.151)" fill="black"/>
<ellipse opacity="0.106874" cx="542.288" cy="408.693" rx="16.3423" ry="16.3133" transform="rotate(115.2 542.288 408.693)" fill="black"/>
<ellipse opacity="0.5414" cx="254.911" cy="288.107" rx="2.04293" ry="2.03903" transform="rotate(113.4 254.911 288.107)" fill="black"/>
<ellipse opacity="0.597168" cx="6.25842" cy="198.179" rx="10.2153" ry="10.1945" transform="rotate(111.6 6.25842 198.179)" fill="black"/>
<ellipse opacity="0.591116" cx="311.979" cy="431.175" rx="18.3885" ry="18.3491" transform="rotate(109.8 311.979 431.175)" fill="black"/>
<ellipse opacity="0.511978" cx="30.716" cy="75.5496" rx="10.2164" ry="10.1934" transform="rotate(108 30.716 75.5496)" fill="black"/>
<ellipse opacity="0.135249" cx="401.657" cy="394.386" rx="6.13014" ry="6.11573" transform="rotate(106.2 401.657 394.386)" fill="black"/>
<ellipse opacity="0.0147395" cx="440.381" cy="343.29" rx="16.3478" ry="16.3079" transform="rotate(104.4 440.381 343.29)" fill="black"/>
<ellipse opacity="0.44425" cx="14.411" cy="357.597" rx="10.2178" ry="10.192" transform="rotate(102.6 14.411 357.597)" fill="black"/>
<ellipse opacity="0.567128" cx="51.0974" cy="194.091" rx="14.3053" ry="14.2683" transform="rotate(100.8 51.0974 194.091)" fill="black"/>
<ellipse opacity="0.446874" cx="169.309" cy="525.191" rx="18.3932" ry="18.3445" transform="rotate(99 169.309 525.191)" fill="black"/>
<ellipse opacity="0.730595" cx="175.424" cy="429.131" rx="8.17493" ry="8.1529" transform="rotate(97.2 175.424 429.131)" fill="black"/>
<ellipse opacity="0.752524" cx="383.313" cy="32.6294" rx="4.0876" ry="4.07631" transform="rotate(93.6 383.313 32.6294)" fill="black"/>
<ellipse opacity="0.678461" cx="485.22" cy="204.31" rx="12.2629" ry="12.2288" transform="rotate(91.8 485.22 204.31)" fill="black"/>
<ellipse opacity="0.480536" cx="73.5169" cy="514.972" rx="16.3506" ry="16.3051" transform="rotate(90 73.5169 514.972)" fill="black"/>
<ellipse opacity="0.733336" cx="77.5932" cy="298.326" rx="8.17527" ry="8.15256" transform="rotate(88.2 77.5932 298.326)" fill="black"/>
<ellipse opacity="0.127767" cx="483.182" cy="95.9879" rx="10.219" ry="10.1908" transform="rotate(86.4 483.182 95.9879)" fill="black"/>
<ellipse opacity="0.590865" cx="523.945" cy="95.9879" rx="10.2187" ry="10.1911" transform="rotate(82.8 523.945 95.9879)" fill="black"/>
<ellipse opacity="0.136685" cx="426.114" cy="361.685" rx="2.04362" ry="2.03833" transform="rotate(79.2 426.114 361.685)" fill="black"/>
<ellipse opacity="0.714752" cx="505.601" cy="449.569" rx="8.17352" ry="8.15431" transform="rotate(73.8 505.601 449.569)" fill="black"/>
<ellipse opacity="0.362783" cx="489.296" cy="298.326" rx="8.17306" ry="8.15471" transform="rotate(72 489.296 298.326)" fill="black"/>
<ellipse opacity="0.199848" cx="89.822" cy="286.063" rx="8.17268" ry="8.15512" transform="rotate(70.2 89.822 286.063)" fill="black"/>
<ellipse opacity="0.165353" cx="142.813" cy="494.533" rx="12.2583" ry="12.2334" transform="rotate(68.4 142.813 494.533)" fill="black"/>
<ellipse opacity="0.264235" cx="55.1736" cy="46.9361" rx="6.12878" ry="6.11713" transform="rotate(66.6 55.1736 46.9361)" fill="black"/>
<ellipse opacity="0.935363" cx="303.826" cy="284.02" rx="2.04279" ry="2.03917" transform="rotate(64.8 303.826 284.02)" fill="black"/>
<ellipse opacity="0.655055" cx="503.563" cy="414.824" rx="18.3825" ry="18.3551" transform="rotate(61.2 503.563 414.824)" fill="black"/>
<ellipse opacity="0.500837" cx="352.741" cy="251.318" rx="2.04235" ry="2.03961" transform="rotate(59.4 352.741 251.318)" fill="black"/>
<ellipse opacity="0.678295" cx="342.551" cy="273.8" rx="8.16876" ry="8.15907" transform="rotate(57.6 342.551 273.8)" fill="black"/>
<ellipse opacity="0.115532" cx="112.241" cy="83.7249" rx="2.04186" ry="2.0401" transform="rotate(54 112.241 83.7249)" fill="black"/>
<ellipse opacity="0.494832" cx="362.932" cy="498.621" rx="8.16604" ry="8.16178" transform="rotate(50.4 362.932 498.621)" fill="black"/>
<ellipse opacity="0.252766" cx="201.919" cy="-10.2909" rx="10.2067" ry="10.2031" transform="rotate(48.6 201.919 -10.2909)" fill="black"/>
<ellipse opacity="0.236318" cx="112.241" cy="18.3226" rx="14.2856" ry="14.2881" transform="rotate(43.2 112.241 18.3226)" fill="black"/>
<ellipse opacity="0.01" cx="356.818" cy="308.545" rx="6.12186" ry="6.124" transform="rotate(41.4 356.818 308.545)" fill="black"/>
<ellipse opacity="0.418967" cx="12.3729" cy="363.729" rx="12.2427" ry="12.2491" transform="rotate(39.6 12.3729 363.729)" fill="black"/>
<ellipse opacity="0.408336" cx="14.411" cy="427.087" rx="10.2005" ry="10.2093" transform="rotate(36 14.411 427.087)" fill="black"/>
<ellipse opacity="0.653495" cx="364.97" cy="500.665" rx="6.1193" ry="6.12657" transform="rotate(32.4 364.97 500.665)" fill="black"/>
<ellipse opacity="0.208869" cx="120.394" cy="100.076" rx="10.198" ry="10.2117" transform="rotate(30.6 120.394 100.076)" fill="black"/>
<ellipse opacity="0.150542" cx="379.237" cy="151.171" rx="12.2367" ry="12.255" transform="rotate(28.8 379.237 151.171)" fill="black"/>
<ellipse opacity="0.188562" cx="481.144" cy="298.326" rx="8.15723" ry="8.1706" transform="rotate(27 481.144 298.326)" fill="black"/>
<ellipse opacity="0.0310298" cx="77.5931" cy="187.96" rx="4.07833" ry="4.08558" transform="rotate(25.2 77.5931 187.96)" fill="black"/>
<ellipse opacity="0.219223" cx="183.576" cy="12.1911" rx="8.15613" ry="8.1717" transform="rotate(23.4 183.576 12.1911)" fill="black"/>
<ellipse opacity="0.0203146" cx="14.411" cy="472.051" rx="14.2723" ry="14.3014" transform="rotate(21.6 14.411 472.051)" fill="black"/>
<ellipse opacity="0.21678" cx="528.021" cy="304.458" rx="10.1939" ry="10.2158" transform="rotate(19.8 528.021 304.458)" fill="#E6E6E6"/>
<ellipse opacity="0.913811" cx="303.826" cy="488.402" rx="6.11573" ry="6.13014" transform="rotate(16.2 303.826 488.402)" fill="black"/>
<ellipse opacity="0.68408" cx="205.996" cy="198.179" rx="10.1917" ry="10.2181" transform="rotate(10.8 205.996 198.179)" fill="black"/>
<ellipse opacity="0.288916" cx="528.021" cy="173.653" rx="10.1914" ry="10.2184" transform="rotate(9 528.021 173.653)" fill="black"/>
<ellipse opacity="0.468796" cx="389.428" cy="316.721" rx="18.344" ry="18.3936" transform="rotate(7.2 389.428 316.721)" fill="black"/>
<ellipse opacity="0.0683222" cx="450.572" cy="222.705" rx="6.11456" ry="6.13132" transform="rotate(5.4 450.572 222.705)" fill="black"/>
<ellipse opacity="0.747333" cx="340.513" cy="234.968" rx="6.11447" ry="6.1314" transform="rotate(3.6 340.513 234.968)" fill="black"/>
<ellipse opacity="0.556722" cx="291.432" cy="215.498" rx="16.6364" ry="16.6344" transform="rotate(1.8 291.432 215.498)" fill="#00DAFF"/>
</g>
</svg>
