<svg width="166" height="36" viewBox="0 0 166 36" fill="none" xmlns="http://www.w3.org/2000/svg">
    <g clip-path="url(#clip0)">
        <path d="M51.2814 26.53C48.7854 26.53 47.4594 25.204 47.3294 23.228H44.2094C44.3134 26.244 46.2114 29.364 51.1254 29.364C55.5454 29.364 58.4574 27.18 58.4574 23.826C58.4574 16.442 48.0574 19.588 48.0574 15.532C48.0574 13.894 49.3834 12.984 51.5414 12.984C53.9074 12.984 55.1294 14.44 55.1554 16.26H58.2494C58.1714 12.802 55.8834 10.15 51.5414 10.15C47.4334 10.15 44.9374 12.672 44.9374 15.61C44.9374 22.994 55.2594 19.458 55.2594 23.956C55.2594 25.62 53.8034 26.53 51.2814 26.53ZM69.4357 23.28C69.4357 25.49 68.2397 26.66 66.3157 26.66C64.4437 26.66 63.6897 25.438 63.6897 23.592V15.506H60.5957V24.008C60.5957 27.154 62.2857 29.312 65.5617 29.312C67.7457 29.312 69.0977 28.324 69.6697 27.258V29H72.5297V15.506H69.4357V23.28ZM78.5138 27.232C79.2678 28.402 80.7498 29.312 82.8298 29.312C86.8338 29.312 89.0958 26.114 89.0958 22.266C89.0958 18.392 86.8338 15.194 82.8298 15.194C80.7498 15.194 79.1638 16.052 78.2798 17.43V15.506H75.4198V34.408H78.5138V27.232ZM78.4098 22.266C78.4098 19.77 79.8398 17.872 82.2058 17.872C84.5458 17.872 86.0018 19.77 86.0018 22.266C86.0018 24.684 84.5458 26.582 82.2058 26.582C79.8398 26.582 78.4098 24.684 78.4098 22.266ZM103.532 23.15C103.532 23.15 103.558 22.682 103.558 22.188C103.558 18.236 100.932 15.194 96.9281 15.194C92.9241 15.194 90.2201 18.314 90.2201 22.24C90.2201 26.27 92.8721 29.312 96.9541 29.312C100.1 29.312 102.492 27.414 103.298 24.736H100.178C99.6841 25.932 98.4621 26.66 97.0321 26.66C94.8741 26.66 93.4961 25.282 93.2621 23.15H103.532ZM96.9281 17.716C98.9301 17.716 100.23 18.99 100.49 20.862H93.3141C93.6261 19.016 94.9261 17.716 96.9281 17.716ZM112.824 15.402C112.824 15.402 112.512 15.376 112.382 15.376C110.042 15.376 108.898 16.52 108.404 17.378V15.506H105.544V29H108.638V21.98C108.638 19.38 109.938 18.236 112.122 18.236C112.46 18.236 112.824 18.288 112.824 18.288V15.402ZM117.315 9.5H114.221V29H117.315V21.2C117.315 19.068 118.537 17.846 120.487 17.846C122.333 17.846 123.165 19.068 123.165 20.914V29H126.259V20.524C126.259 17.378 124.517 15.194 121.241 15.194C119.239 15.194 117.939 16.052 117.315 16.962V9.5ZM141.47 23.15C141.47 23.15 141.496 22.682 141.496 22.188C141.496 18.236 138.87 15.194 134.866 15.194C130.862 15.194 128.158 18.314 128.158 22.24C128.158 26.27 130.81 29.312 134.892 29.312C138.038 29.312 140.43 27.414 141.236 24.736H138.116C137.622 25.932 136.4 26.66 134.97 26.66C132.812 26.66 131.434 25.282 131.2 23.15H141.47ZM134.866 17.716C136.868 17.716 138.168 18.99 138.428 20.862H131.252C131.564 19.016 132.864 17.716 134.866 17.716ZM150.762 15.402C150.762 15.402 150.45 15.376 150.32 15.376C147.98 15.376 146.836 16.52 146.342 17.378V15.506H143.482V29H146.576V21.98C146.576 19.38 147.876 18.236 150.06 18.236C150.398 18.236 150.762 18.288 150.762 18.288V15.402ZM157.684 29.312C162 29.312 164.704 26.062 164.704 22.266C164.704 18.47 162 15.194 157.684 15.194C153.394 15.194 150.69 18.47 150.69 22.266C150.69 26.062 153.394 29.312 157.684 29.312ZM153.784 22.266C153.784 19.64 155.448 17.924 157.684 17.924C159.946 17.924 161.61 19.64 161.61 22.266C161.61 24.866 159.946 26.582 157.684 26.582C155.448 26.582 153.784 24.866 153.784 22.266Z" fill="white"/>
        <path fill-rule="evenodd" clip-rule="evenodd" d="M10.0685 8L0 17.4109L11.3137 28.4344L11.3064 28.4417L13.3522 30.4814L13.383 30.4506L19.066 35.9878L38.0187 17.4177L27.9502 8.00593L10.0685 8ZM19.059 31.9474L15.4229 28.4046L21.4323 22.3773L25.0908 26.0374L19.059 31.9474ZM13.3536 26.3884L19.39 20.3341L10.5586 11.499L4.18562 17.4556L13.3536 26.3884ZM31.0929 20.1565L27.1544 24.0154L14.0357 10.8912L21.7097 10.8937L31.018 20.2103L31.0929 20.1565Z" fill="white"/>
        <path d="M0 17.4109L-0.0341422 17.3743L-0.072419 17.4101L-0.034893 17.4467L0 17.4109ZM10.0685 8L10.0685 7.95L10.0488 7.94999L10.0344 7.96347L10.0685 8ZM11.3137 28.4344L11.3491 28.4697L11.3848 28.4338L11.3486 28.3985L11.3137 28.4344ZM11.3064 28.4417L11.271 28.4064L11.2357 28.4418L11.2711 28.4771L11.3064 28.4417ZM13.3522 30.4814L13.3169 30.5168L13.3524 30.5521L13.3877 30.5167L13.3522 30.4814ZM13.383 30.4506L13.4179 30.4147L13.3825 30.3803L13.3476 30.4153L13.383 30.4506ZM19.066 35.9878L19.0311 36.0236L19.0661 36.0577L19.101 36.0235L19.066 35.9878ZM38.0187 17.4177L38.0537 17.4534L38.091 17.4168L38.0529 17.3811L38.0187 17.4177ZM27.9502 8.00593L27.9843 7.96941L27.9699 7.95594L27.9502 7.95593L27.9502 8.00593ZM15.4229 28.4046L15.3875 28.3693L15.3518 28.4051L15.388 28.4404L15.4229 28.4046ZM19.059 31.9474L19.0241 31.9832L19.0591 32.0173L19.094 31.9831L19.059 31.9474ZM21.4323 22.3773L21.4677 22.342L21.4323 22.3066L21.3969 22.342L21.4323 22.3773ZM25.0908 26.0374L25.1258 26.0731L25.1619 26.0377L25.1262 26.002L25.0908 26.0374ZM19.39 20.3341L19.4254 20.3694L19.4607 20.3341L19.4254 20.2988L19.39 20.3341ZM13.3536 26.3884L13.3187 26.4242L13.3541 26.4587L13.389 26.4237L13.3536 26.3884ZM10.5586 11.499L10.5939 11.4636L10.5597 11.4294L10.5244 11.4624L10.5586 11.499ZM4.18562 17.4556L4.15148 17.4191L4.1132 17.4549L4.15073 17.4914L4.18562 17.4556ZM31.0929 20.1565L31.1278 20.1922L31.0637 20.1159L31.0929 20.1565ZM27.1544 24.0154L27.1191 24.0508L27.1541 24.0858L27.1894 24.0511L27.1544 24.0154ZM14.0357 10.8912L14.0358 10.8412L13.915 10.8412L14.0004 10.9265L14.0357 10.8912ZM21.7097 10.8937L21.7451 10.8584L21.7305 10.8437L21.7097 10.8437L21.7097 10.8937ZM31.018 20.2103L30.9826 20.2457L31.0126 20.2757L31.0471 20.2509L31.018 20.2103ZM0.0341422 17.4474L10.1027 8.03653L10.0344 7.96347L-0.0341422 17.3743L0.0341422 17.4474ZM11.3486 28.3985L0.034893 17.375L-0.034893 17.4467L11.2788 28.4702L11.3486 28.3985ZM11.3419 28.477L11.3491 28.4697L11.2783 28.3991L11.271 28.4064L11.3419 28.477ZM13.3876 30.446L11.3418 28.4062L11.2711 28.4771L13.3169 30.5168L13.3876 30.446ZM13.3476 30.4153L13.3168 30.4461L13.3877 30.5167L13.4184 30.4859L13.3476 30.4153ZM19.1009 35.9519L13.4179 30.4147L13.3481 30.4864L19.0311 36.0236L19.1009 35.9519ZM37.9837 17.3819L19.031 35.952L19.101 36.0235L38.0537 17.4534L37.9837 17.3819ZM27.916 8.04246L37.9846 17.4542L38.0529 17.3811L27.9843 7.96941L27.916 8.04246ZM10.0685 8.05L27.9501 8.05593L27.9502 7.95593L10.0685 7.95L10.0685 8.05ZM15.388 28.4404L19.0241 31.9832L19.0939 31.9116L15.4578 28.3688L15.388 28.4404ZM21.3969 22.342L15.3875 28.3693L15.4583 28.4399L21.4678 22.4126L21.3969 22.342ZM25.1262 26.002L21.4677 22.342L21.397 22.4127L25.0555 26.0727L25.1262 26.002ZM19.094 31.9831L25.1258 26.0731L25.0558 26.0016L19.024 31.9117L19.094 31.9831ZM19.3546 20.2988L13.3182 26.3531L13.389 26.4237L19.4254 20.3694L19.3546 20.2988ZM10.5232 11.5343L19.3546 20.3695L19.4254 20.2988L10.5939 11.4636L10.5232 11.5343ZM4.21977 17.4922L10.5927 11.5355L10.5244 11.4624L4.15148 17.4191L4.21977 17.4922ZM13.3885 26.3526L4.22052 17.4198L4.15073 17.4914L13.3187 26.4242L13.3885 26.3526ZM31.0579 20.1208L27.1194 23.9797L27.1894 24.0511L31.1278 20.1922L31.0579 20.1208ZM27.1898 23.9801L14.0711 10.8558L14.0004 10.9265L27.1191 24.0508L27.1898 23.9801ZM14.0357 10.9412L21.7097 10.9437L21.7097 10.8437L14.0358 10.8412L14.0357 10.9412ZM31.0533 20.175L21.7451 10.8584L21.6744 10.9291L30.9826 20.2457L31.0533 20.175ZM31.0637 20.1159L30.9888 20.1697L31.0471 20.2509L31.122 20.1971L31.0637 20.1159Z" fill="white"/>
    </g>
    <defs>
        <clipPath id="clip0">
            <rect width="166" height="36" fill="white"/>
        </clipPath>
    </defs>
</svg>
