<svg width="166" height="30" viewBox="0 0 166 30" fill="none" xmlns="http://www.w3.org/2000/svg">
<path fill-rule="evenodd" clip-rule="evenodd" d="M11.0685 1L1 10.4109L12.3137 21.4344L12.3064 21.4417L14.3522 23.4814L14.383 23.4506L20.066 28.9878L39.0187 10.4177L28.9502 1.00593L11.0685 1ZM20.059 24.9474L16.4229 21.4046L22.4323 15.3773L26.0908 19.0374L20.059 24.9474ZM14.3536 19.3884L20.39 13.3341L11.5586 4.49896L5.18562 10.4556L14.3536 19.3884ZM32.0929 13.1565L28.1544 17.0154L15.0357 3.89119L22.7097 3.89374L32.018 13.2103L32.0929 13.1565Z" fill="black"/>
<path d="M52.2814 19.53C49.7854 19.53 48.4594 18.204 48.3294 16.228H45.2094C45.3134 19.244 47.2114 22.364 52.1254 22.364C56.5454 22.364 59.4574 20.18 59.4574 16.826C59.4574 12.5851 56.0269 11.8177 53.1063 11.1643C50.9418 10.6801 49.0574 10.2585 49.0574 8.532C49.0574 6.894 50.3834 5.984 52.5414 5.984C54.9074 5.984 56.1294 7.44 56.1554 9.26H59.2494C59.1714 5.802 56.8834 3.15 52.5414 3.15C48.4334 3.15 45.9374 5.672 45.9374 8.61C45.9374 12.7572 49.1935 13.4597 52.048 14.0756C54.276 14.5563 56.2594 14.9843 56.2594 16.956C56.2594 18.62 54.8034 19.53 52.2814 19.53Z" fill="black"/>
<path d="M70.4357 16.28C70.4357 18.49 69.2397 19.66 67.3157 19.66C65.4437 19.66 64.6897 18.438 64.6897 16.592V8.506H61.5957V17.008C61.5957 20.154 63.2857 22.312 66.5617 22.312C68.7457 22.312 70.0977 21.324 70.6697 20.258V22H73.5297V8.506H70.4357V16.28Z" fill="black"/>
<path fill-rule="evenodd" clip-rule="evenodd" d="M79.5138 20.232C80.2678 21.402 81.7498 22.312 83.8298 22.312C87.8338 22.312 90.0958 19.114 90.0958 15.266C90.0958 11.392 87.8338 8.194 83.8298 8.194C81.7498 8.194 80.1638 9.052 79.2798 10.43V8.506H76.4198V27.408H79.5138V20.232ZM79.4098 15.266C79.4098 12.77 80.8398 10.872 83.2058 10.872C85.5458 10.872 87.0018 12.77 87.0018 15.266C87.0018 17.684 85.5458 19.582 83.2058 19.582C80.8398 19.582 79.4098 17.684 79.4098 15.266Z" fill="black"/>
<path fill-rule="evenodd" clip-rule="evenodd" d="M104.532 16.15C104.532 16.15 104.558 15.682 104.558 15.188C104.558 11.236 101.932 8.194 97.9281 8.194C93.9241 8.194 91.2201 11.314 91.2201 15.24C91.2201 19.27 93.8721 22.312 97.9541 22.312C101.1 22.312 103.492 20.414 104.298 17.736H101.178C100.684 18.932 99.4621 19.66 98.0321 19.66C95.8741 19.66 94.4961 18.282 94.2621 16.15H104.532ZM97.9281 10.716C99.9301 10.716 101.23 11.99 101.49 13.862H94.3141C94.6261 12.016 95.9261 10.716 97.9281 10.716Z" fill="black"/>
<path d="M113.824 8.402C113.824 8.402 113.512 8.376 113.382 8.376C111.042 8.376 109.898 9.52 109.404 10.378V8.506H106.544V22H109.638V14.98C109.638 12.38 110.938 11.236 113.122 11.236C113.46 11.236 113.824 11.288 113.824 11.288V8.402Z" fill="black"/>
<path d="M118.315 2.5H115.221V22H118.315V14.2C118.315 12.068 119.537 10.846 121.487 10.846C123.333 10.846 124.165 12.068 124.165 13.914V22H127.259V13.524C127.259 10.378 125.517 8.194 122.241 8.194C120.239 8.194 118.939 9.052 118.315 9.962V2.5Z" fill="black"/>
<path fill-rule="evenodd" clip-rule="evenodd" d="M142.47 16.15C142.47 16.15 142.496 15.682 142.496 15.188C142.496 11.236 139.87 8.194 135.866 8.194C131.862 8.194 129.158 11.314 129.158 15.24C129.158 19.27 131.81 22.312 135.892 22.312C139.038 22.312 141.43 20.414 142.236 17.736H139.116C138.622 18.932 137.4 19.66 135.97 19.66C133.812 19.66 132.434 18.282 132.2 16.15H142.47ZM135.866 10.716C137.868 10.716 139.168 11.99 139.428 13.862H132.252C132.564 12.016 133.864 10.716 135.866 10.716Z" fill="black"/>
<path d="M151.762 8.402C151.762 8.402 151.45 8.376 151.32 8.376C148.98 8.376 147.836 9.52 147.342 10.378V8.506H144.482V22H147.576V14.98C147.576 12.38 148.876 11.236 151.06 11.236C151.398 11.236 151.762 11.288 151.762 11.288V8.402Z" fill="black"/>
<path fill-rule="evenodd" clip-rule="evenodd" d="M158.684 22.312C163 22.312 165.704 19.062 165.704 15.266C165.704 11.47 163 8.194 158.684 8.194C154.394 8.194 151.69 11.47 151.69 15.266C151.69 19.062 154.394 22.312 158.684 22.312ZM154.784 15.266C154.784 12.64 156.448 10.924 158.684 10.924C160.946 10.924 162.61 12.64 162.61 15.266C162.61 17.866 160.946 19.582 158.684 19.582C156.448 19.582 154.784 17.866 154.784 15.266Z" fill="black"/>
<path fill-rule="evenodd" clip-rule="evenodd" d="M11.0685 1L1 10.4109L12.3137 21.4344L12.3064 21.4417L14.3522 23.4814L14.383 23.4506L20.066 28.9878L39.0187 10.4177L28.9502 1.00593L11.0685 1ZM20.059 24.9474L16.4229 21.4046L22.4323 15.3773L26.0908 19.0374L20.059 24.9474ZM14.3536 19.3884L20.39 13.3341L11.5586 4.49896L5.18562 10.4556L14.3536 19.3884ZM32.0929 13.1565L28.1544 17.0154L15.0357 3.89119L22.7097 3.89374L32.018 13.2103L32.0929 13.1565Z" stroke="black" stroke-width="0.1"/>
<path d="M52.2814 19.53C49.7854 19.53 48.4594 18.204 48.3294 16.228H45.2094C45.3134 19.244 47.2114 22.364 52.1254 22.364C56.5454 22.364 59.4574 20.18 59.4574 16.826C59.4574 12.5851 56.0269 11.8177 53.1063 11.1643C50.9418 10.6801 49.0574 10.2585 49.0574 8.532C49.0574 6.894 50.3834 5.984 52.5414 5.984C54.9074 5.984 56.1294 7.44 56.1554 9.26H59.2494C59.1714 5.802 56.8834 3.15 52.5414 3.15C48.4334 3.15 45.9374 5.672 45.9374 8.61C45.9374 12.7572 49.1935 13.4597 52.048 14.0756C54.276 14.5563 56.2594 14.9843 56.2594 16.956C56.2594 18.62 54.8034 19.53 52.2814 19.53Z" stroke="black" stroke-width="0.1"/>
<path d="M70.4357 16.28C70.4357 18.49 69.2397 19.66 67.3157 19.66C65.4437 19.66 64.6897 18.438 64.6897 16.592V8.506H61.5957V17.008C61.5957 20.154 63.2857 22.312 66.5617 22.312C68.7457 22.312 70.0977 21.324 70.6697 20.258V22H73.5297V8.506H70.4357V16.28Z" stroke="black" stroke-width="0.1"/>
<path fill-rule="evenodd" clip-rule="evenodd" d="M79.5138 20.232C80.2678 21.402 81.7498 22.312 83.8298 22.312C87.8338 22.312 90.0958 19.114 90.0958 15.266C90.0958 11.392 87.8338 8.194 83.8298 8.194C81.7498 8.194 80.1638 9.052 79.2798 10.43V8.506H76.4198V27.408H79.5138V20.232ZM79.4098 15.266C79.4098 12.77 80.8398 10.872 83.2058 10.872C85.5458 10.872 87.0018 12.77 87.0018 15.266C87.0018 17.684 85.5458 19.582 83.2058 19.582C80.8398 19.582 79.4098 17.684 79.4098 15.266Z" stroke="black" stroke-width="0.1"/>
<path fill-rule="evenodd" clip-rule="evenodd" d="M104.532 16.15C104.532 16.15 104.558 15.682 104.558 15.188C104.558 11.236 101.932 8.194 97.9281 8.194C93.9241 8.194 91.2201 11.314 91.2201 15.24C91.2201 19.27 93.8721 22.312 97.9541 22.312C101.1 22.312 103.492 20.414 104.298 17.736H101.178C100.684 18.932 99.4621 19.66 98.0321 19.66C95.8741 19.66 94.4961 18.282 94.2621 16.15H104.532ZM97.9281 10.716C99.9301 10.716 101.23 11.99 101.49 13.862H94.3141C94.6261 12.016 95.9261 10.716 97.9281 10.716Z" stroke="black" stroke-width="0.1"/>
<path d="M113.824 8.402C113.824 8.402 113.512 8.376 113.382 8.376C111.042 8.376 109.898 9.52 109.404 10.378V8.506H106.544V22H109.638V14.98C109.638 12.38 110.938 11.236 113.122 11.236C113.46 11.236 113.824 11.288 113.824 11.288V8.402Z" stroke="black" stroke-width="0.1"/>
<path d="M118.315 2.5H115.221V22H118.315V14.2C118.315 12.068 119.537 10.846 121.487 10.846C123.333 10.846 124.165 12.068 124.165 13.914V22H127.259V13.524C127.259 10.378 125.517 8.194 122.241 8.194C120.239 8.194 118.939 9.052 118.315 9.962V2.5Z" stroke="black" stroke-width="0.1"/>
<path fill-rule="evenodd" clip-rule="evenodd" d="M142.47 16.15C142.47 16.15 142.496 15.682 142.496 15.188C142.496 11.236 139.87 8.194 135.866 8.194C131.862 8.194 129.158 11.314 129.158 15.24C129.158 19.27 131.81 22.312 135.892 22.312C139.038 22.312 141.43 20.414 142.236 17.736H139.116C138.622 18.932 137.4 19.66 135.97 19.66C133.812 19.66 132.434 18.282 132.2 16.15H142.47ZM135.866 10.716C137.868 10.716 139.168 11.99 139.428 13.862H132.252C132.564 12.016 133.864 10.716 135.866 10.716Z" stroke="black" stroke-width="0.1"/>
<path d="M151.762 8.402C151.762 8.402 151.45 8.376 151.32 8.376C148.98 8.376 147.836 9.52 147.342 10.378V8.506H144.482V22H147.576V14.98C147.576 12.38 148.876 11.236 151.06 11.236C151.398 11.236 151.762 11.288 151.762 11.288V8.402Z" stroke="black" stroke-width="0.1"/>
<path fill-rule="evenodd" clip-rule="evenodd" d="M158.684 22.312C163 22.312 165.704 19.062 165.704 15.266C165.704 11.47 163 8.194 158.684 8.194C154.394 8.194 151.69 11.47 151.69 15.266C151.69 19.062 154.394 22.312 158.684 22.312ZM154.784 15.266C154.784 12.64 156.448 10.924 158.684 10.924C160.946 10.924 162.61 12.64 162.61 15.266C162.61 17.866 160.946 19.582 158.684 19.582C156.448 19.582 154.784 17.866 154.784 15.266Z" stroke="black" stroke-width="0.1"/>
</svg>
