<svg viewBox="0 0 24 24" fill="none" xmlns="http://www.w3.org/2000/svg">
<g opacity="0.7">
<path opacity="0.44" d="M2 12.0016C2 12.0016 4.72778 5.33496 12 5.33496C17.4544 5.33496 22 12.0016 22 12.0016C22 12.0016 17.4544 18.6683 12 18.6683C4.72778 18.6683 2 12.0016 2 12.0016Z" fill="white"/>
<path d="M12 15.335C11.3407 15.335 10.6963 15.1395 10.1481 14.7732C9.59994 14.407 9.1727 13.8864 8.92041 13.2773C8.66812 12.6682 8.6021 11.998 8.73072 11.3514C8.85934 10.7048 9.17681 10.1108 9.64298 9.64465C10.1092 9.17847 10.7031 8.861 11.3497 8.73239C11.9963 8.60377 12.6665 8.66978 13.2756 8.92207C13.8847 9.17436 14.4053 9.60161 14.7716 10.1498C15.1378 10.6979 15.3333 11.3424 15.3333 12.0017C15.3333 12.8857 14.9822 13.7336 14.357 14.3587C13.7319 14.9838 12.8841 15.335 12 15.335Z" fill="white"/>
</g>
</svg>
