<svg width="14" height="14" viewBox="0 0 14 14" fill="none" xmlns="http://www.w3.org/2000/svg">
<path opacity="0.44" d="M12.1792 13.1283C12.0541 13.2533 11.8846 13.3235 11.7077 13.3235C11.5309 13.3235 11.3614 13.2533 11.2363 13.1283L6.9937 8.88562L2.75106 13.1283C2.62604 13.2533 2.45647 13.3235 2.27966 13.3235C2.10285 13.3235 1.93328 13.2533 1.80825 13.1283L0.865442 12.1854C0.740418 12.0604 0.67018 11.8909 0.67018 11.714C0.670181 11.5372 0.740418 11.3677 0.865443 11.2426L5.10808 7L0.865443 2.75736C0.740418 2.63233 0.670181 2.46277 0.67018 2.28595C0.67018 2.10914 0.740418 1.93957 0.865442 1.81455L1.80825 0.871741C1.93328 0.746717 2.10285 0.676479 2.27966 0.676479C2.45647 0.676479 2.62604 0.746717 2.75106 0.871741L6.9937 5.11438L11.2363 0.871741C11.3614 0.746717 11.5309 0.676479 11.7077 0.676478C11.8846 0.676479 12.0541 0.746717 12.1792 0.871741L13.122 1.81455C13.247 1.93957 13.3172 2.10914 13.3172 2.28595C13.3172 2.46277 13.247 2.63233 13.122 2.75736L8.87932 7L13.122 11.2426C13.247 11.3677 13.3172 11.5372 13.3172 11.714C13.3172 11.8909 13.247 12.0604 13.122 12.1854L12.1792 13.1283Z" fill="white"/>
</svg>
